<svg width="840" height="92" viewBox="0 0 840 92" fill="none" xmlns="http://www.w3.org/2000/svg">
<path d="M9.216 1.67999V-0.320007H7.216V1.67999H9.216ZM76.288 9.35999L74.8259 10.7246L74.8316 10.7308L74.8374 10.7368L76.288 9.35999ZM76.288 51.472L77.7268 52.8612L77.7327 52.855L77.7386 52.8488L76.288 51.472ZM27.392 58.896V56.896H25.392V58.896H27.392ZM27.392 90V92H29.392V90H27.392ZM9.216 90H7.216V92H9.216V90ZM61.824 19.728L60.3292 21.0567L60.3427 21.0719L60.3565 21.0868L61.824 19.728ZM27.392 16.272V14.272H25.392V16.272H27.392ZM27.392 44.304H25.392V46.304H27.392V44.304ZM61.824 40.976L60.3823 39.5898L60.3823 39.5898L61.824 40.976ZM9.216 3.67999H54.272V-0.320007H9.216V3.67999ZM54.272 3.67999C63.8506 3.67999 70.5601 6.15418 74.8259 10.7246L77.7501 7.99536C72.4585 2.3258 64.4908 -0.320007 54.272 -0.320007V3.67999ZM74.8374 10.7368C79.1665 15.2979 81.456 21.7866 81.456 30.48H85.456C85.456 21.0827 82.9669 13.4915 77.7386 7.98314L74.8374 10.7368ZM81.456 30.48C81.456 39.0821 79.1697 45.5308 74.8374 50.0951L77.7386 52.8488C82.9637 47.3439 85.456 39.7979 85.456 30.48H81.456ZM74.8492 50.0828C70.5869 54.4973 63.8685 56.896 54.272 56.896V60.896C64.4728 60.896 72.4318 58.3453 77.7268 52.8612L74.8492 50.0828ZM54.272 56.896H27.392V60.896H54.272V56.896ZM25.392 58.896V90H29.392V58.896H25.392ZM27.392 88H9.216V92H27.392V88ZM11.216 90V1.67999H7.216V90H11.216ZM67.024 32.528V28.304H63.024V32.528H67.024ZM67.024 28.304C67.024 24.4346 65.7983 21.0765 63.2915 18.3692L60.3565 21.0868C62.1164 22.9875 63.024 25.3467 63.024 28.304H67.024ZM63.3188 18.3993C60.7423 15.5007 56.7909 14.272 51.968 14.272V18.272C56.1905 18.272 58.8097 19.3473 60.3292 21.0567L63.3188 18.3993ZM51.968 14.272H27.392V18.272H51.968V14.272ZM25.392 16.272V44.304H29.392V16.272H25.392ZM27.392 46.304H51.968V42.304H27.392V46.304ZM51.968 46.304C56.7067 46.304 60.6149 45.119 63.2657 42.3622L60.3823 39.5898C58.7664 41.2704 56.1039 42.304 51.968 42.304V46.304ZM63.2657 42.3622C65.7976 39.729 67.024 36.3968 67.024 32.528H63.024C63.024 35.4858 62.117 37.7857 60.3823 39.5898L63.2657 42.3622ZM110.046 1.67999V-0.320007H108.046V1.67999H110.046ZM176.222 8.848L174.869 10.3213L174.869 10.3213L176.222 8.848ZM168.03 54.8L167.351 52.9186L165.182 53.701L166.264 55.7378L168.03 54.8ZM186.718 90V92H190.044L188.484 89.0622L186.718 90ZM167.134 90L165.365 90.9326L165.927 92H167.134V90ZM149.726 56.976L151.495 56.0434L150.933 54.976H149.726V56.976ZM128.222 56.976V54.976H126.222V56.976H128.222ZM128.222 90V92H130.222V90H128.222ZM110.046 90H108.046V92H110.046V90ZM162.398 19.216L160.956 20.6022L160.97 20.6163L160.984 20.6302L162.398 19.216ZM128.222 15.888V13.888H126.222V15.888H128.222ZM128.222 42.768H126.222V44.768H128.222V42.768ZM162.27 39.568L160.856 38.1538L160.856 38.1538L162.27 39.568ZM110.046 3.67999H153.822V-0.320007H110.046V3.67999ZM153.822 3.67999C163.239 3.67999 170.153 5.99115 174.869 10.3213L177.575 7.37469C171.881 2.1475 163.861 -0.320007 153.822 -0.320007V3.67999ZM174.869 10.3213C179.565 14.6323 182.03 20.8243 182.03 29.2H186.03C186.03 19.9971 183.289 12.621 177.575 7.37469L174.869 10.3213ZM182.03 29.2C182.03 35.4072 180.724 40.4334 178.24 44.393L181.628 46.519C184.605 41.7746 186.03 35.9635 186.03 29.2H182.03ZM178.24 44.393C175.766 48.3364 172.171 51.1805 167.351 52.9186L168.709 56.6814C174.3 54.6649 178.641 51.2796 181.628 46.519L178.24 44.393ZM166.264 55.7378L184.952 90.9378L188.484 89.0622L169.796 53.8622L166.264 55.7378ZM186.718 88H167.134V92H186.718V88ZM168.903 89.0674L151.495 56.0434L147.957 57.9086L165.365 90.9326L168.903 89.0674ZM149.726 54.976H128.222V58.976H149.726V54.976ZM126.222 56.976V90H130.222V56.976H126.222ZM128.222 88H110.046V92H128.222V88ZM112.046 90V1.67999H108.046V90H112.046ZM167.598 31.12V27.664H163.598V31.12H167.598ZM167.598 27.664C167.598 23.7265 166.381 20.3704 163.812 17.8018L160.984 20.6302C162.682 22.3283 163.598 24.6042 163.598 27.664H167.598ZM163.84 17.8298C161.171 15.0539 157.113 13.888 152.158 13.888V17.888C156.589 17.888 159.359 18.9408 160.956 20.6022L163.84 17.8298ZM152.158 13.888H128.222V17.888H152.158V13.888ZM126.222 15.888V42.768H130.222V15.888H126.222ZM128.222 44.768H152.158V40.768H128.222V44.768ZM152.158 44.768C157.022 44.768 161.018 43.6481 163.684 40.9822L160.856 38.1538C159.255 39.7546 156.51 40.768 152.158 40.768V44.768ZM163.684 40.9822C166.313 38.3537 167.598 35.0124 167.598 31.12H163.598C163.598 34.0543 162.665 36.345 160.856 38.1538L163.684 40.9822ZM211.983 23.952L210.088 23.3112L210.088 23.3112L211.983 23.952ZM220.559 10L221.922 11.4632L221.922 11.4632L220.559 10ZM234.639 2.448L235.165 4.37753L235.175 4.37487L235.185 4.37213L234.639 2.448ZM273.551 2.448L272.998 4.36994L273.011 4.37383L273.025 4.37753L273.551 2.448ZM287.631 10L286.268 11.4632L286.276 11.4709L286.284 11.4784L287.631 10ZM296.335 23.952L294.44 24.5928L296.335 23.952ZM296.335 67.088L298.232 67.7205L298.235 67.7123L296.335 67.088ZM287.631 81.424L289.012 82.8707L289.013 82.87L287.631 81.424ZM273.551 89.232L274.104 91.1539L274.104 91.1539L273.551 89.232ZM234.639 89.232L234.086 91.154L234.093 91.1561L234.639 89.232ZM220.559 81.424L219.161 82.8544L219.17 82.8626L219.178 82.8707L220.559 81.424ZM211.983 67.088L210.083 67.7123L210.086 67.7205L211.983 67.088ZM274.063 20.496L272.722 21.9797L272.737 21.9932L272.752 22.0064L274.063 20.496ZM234.127 20.496L235.452 21.994L235.46 21.9869L235.468 21.9797L234.127 20.496ZM234.127 71.184L232.786 72.6677L232.786 72.6677L234.127 71.184ZM274.063 71.312L275.388 72.81L275.39 72.8084L274.063 71.312ZM211.039 45.2C211.039 36.9813 212.005 30.129 213.878 24.5928L210.088 23.3112C208.036 29.3803 207.039 36.6933 207.039 45.2H211.039ZM213.878 24.5928C215.755 19.0435 218.453 14.6961 221.922 11.4632L219.196 8.53678C215.156 12.3013 212.137 17.2552 210.088 23.3112L213.878 24.5928ZM221.922 11.4632C225.409 8.2143 229.803 5.84007 235.165 4.37753L234.113 0.51847C228.211 2.12792 223.218 4.78837 219.196 8.53678L221.922 11.4632ZM235.185 4.37213C240.69 2.81077 246.987 2.016 254.095 2.016V-1.984C246.696 -1.984 240.022 -1.15744 234.093 0.52387L235.185 4.37213ZM254.095 2.016C261.291 2.016 267.584 2.8115 272.998 4.36994L274.104 0.526053C268.254 -1.15817 261.576 -1.984 254.095 -1.984V2.016ZM273.025 4.37753C278.387 5.84007 282.781 8.2143 286.268 11.4632L288.994 8.53678C284.972 4.78837 279.979 2.12792 274.077 0.51847L273.025 4.37753ZM286.284 11.4784C289.832 14.711 292.567 19.0535 294.44 24.5928L298.23 23.3112C296.178 17.2451 293.11 12.2863 288.978 8.52161L286.284 11.4784ZM294.44 24.5928C296.313 30.129 297.279 36.9813 297.279 45.2H301.279C301.279 36.6933 300.282 29.3803 298.23 23.3112L294.44 24.5928ZM297.279 45.2C297.279 53.6795 296.312 60.751 294.435 66.4637L298.235 67.7123C300.283 61.4783 301.279 53.9579 301.279 45.2H297.279ZM294.438 66.4555C292.561 72.0866 289.817 76.569 286.249 79.978L289.013 82.87C293.125 78.9404 296.184 73.8654 298.232 67.7205L294.438 66.4555ZM286.25 79.9773C282.758 83.311 278.36 85.7664 272.998 87.3101L274.104 91.1539C280.006 89.455 284.995 86.705 289.012 82.8707L286.25 79.9773ZM272.998 87.3101C267.584 88.8685 261.291 89.664 254.095 89.664V93.664C261.576 93.664 268.254 92.8382 274.104 91.1539L272.998 87.3101ZM254.095 89.664C246.987 89.664 240.69 88.8692 235.185 87.3079L234.093 91.1561C240.022 92.8374 246.696 93.664 254.095 93.664V89.664ZM235.192 87.3101C229.83 85.7664 225.432 83.311 221.94 79.9773L219.178 82.8707C223.195 86.705 228.184 89.455 234.086 91.1539L235.192 87.3101ZM221.957 79.9936C218.468 76.5839 215.761 72.0964 213.88 66.4555L210.086 67.7205C212.131 73.8556 215.141 78.9255 219.161 82.8544L221.957 79.9936ZM213.883 66.4637C212.006 60.751 211.039 53.6795 211.039 45.2H207.039C207.039 53.9579 208.035 61.4783 210.083 67.7123L213.883 66.4637ZM282.847 50.96V40.208H278.847V50.96H282.847ZM282.847 40.208C282.847 30.7249 280.525 23.4563 275.374 18.9856L272.752 22.0064C276.646 25.3863 278.847 31.2591 278.847 40.208H282.847ZM275.404 19.0122C270.456 14.54 263.231 12.48 254.095 12.48V16.48C262.709 16.48 268.795 18.4307 272.722 21.9797L275.404 19.0122ZM254.095 12.48C244.959 12.48 237.734 14.54 232.786 19.0122L235.468 21.9797C239.395 18.4307 245.481 16.48 254.095 16.48V12.48ZM232.802 18.998C227.745 23.4714 225.471 30.7351 225.471 40.208H229.471C229.471 31.2489 231.634 25.3713 235.452 21.994L232.802 18.998ZM225.471 40.208V50.96H229.471V40.208H225.471ZM225.471 50.96C225.471 60.6734 227.737 68.1046 232.786 72.6677L235.468 69.7003C231.642 66.2421 229.471 60.1906 229.471 50.96H225.471ZM232.786 72.6677C237.734 77.14 244.959 79.2 254.095 79.2V75.2C245.481 75.2 239.395 73.2493 235.468 69.7003L232.786 72.6677ZM254.095 79.2C263.222 79.2 270.44 77.1869 275.388 72.81L272.738 69.814C268.811 73.2878 262.718 75.2 254.095 75.2V79.2ZM275.39 72.8084C280.536 68.2446 282.847 60.7618 282.847 50.96H278.847C278.847 60.2729 276.635 66.358 272.736 69.8156L275.39 72.8084ZM328.081 1.67999V-0.320007H326.081V1.67999H328.081ZM397.841 11.664L396.497 13.1455L396.506 13.1531L397.841 11.664ZM397.841 79.888L396.496 78.4073L396.488 78.4151L397.841 79.888ZM328.081 90H326.081V92H328.081V90ZM384.145 69.264L385.466 70.7654L385.466 70.7654L384.145 69.264ZM384.145 22.416L382.824 23.9174L382.832 23.9249L382.841 23.9324L384.145 22.416ZM346.257 16.784V14.784H344.257V16.784H346.257ZM346.257 74.896H344.257V76.896H346.257V74.896ZM328.081 3.67999H365.969V-0.320007H328.081V3.67999ZM365.969 3.67999C379.582 3.67999 389.652 6.93698 396.497 13.1454L399.185 10.1826C391.353 3.079 380.175 -0.320007 365.969 -0.320007V3.67999ZM396.506 13.1531C403.306 19.2496 406.977 29.9384 406.977 45.84H410.977C410.977 29.4856 407.224 17.3904 399.176 10.1749L396.506 13.1531ZM406.977 45.84C406.977 61.5599 403.311 72.2197 396.496 78.4073L399.185 81.3686C407.219 74.0736 410.977 62.0348 410.977 45.84H406.977ZM396.488 78.4151C389.643 84.7034 379.576 88 365.969 88V92C380.18 92 391.362 88.5553 399.194 81.3609L396.488 78.4151ZM365.969 88H328.081V92H365.969V88ZM330.081 90V1.67999H326.081V90H330.081ZM365.585 76.896C373.973 76.896 380.705 74.9551 385.466 70.7654L382.824 67.7626C379.051 71.0823 373.41 72.896 365.585 72.896V76.896ZM385.466 70.7654C390.354 66.4644 392.545 59.4993 392.545 50.448H388.545C388.545 58.9754 386.469 64.5543 382.824 67.7626L385.466 70.7654ZM392.545 50.448V40.592H388.545V50.448H392.545ZM392.545 40.592C392.545 31.8569 390.341 25.1066 385.449 20.8996L382.841 23.9324C386.482 27.0641 388.545 32.4311 388.545 40.592H392.545ZM385.466 20.9146C380.705 16.7249 373.973 14.784 365.585 14.784V18.784C373.41 18.784 379.051 20.5977 382.824 23.9174L385.466 20.9146ZM365.585 14.784H346.257V18.784H365.585V14.784ZM344.257 16.784V74.896H348.257V16.784H344.257ZM346.257 76.896H365.585V72.896H346.257V76.896ZM437.018 1.67999V-0.320007H435.018V1.67999H437.018ZM455.066 1.67999H457.066V-0.320007H455.066V1.67999ZM460.314 72.976L459.015 74.4971L459.026 74.5064L459.037 74.5155L460.314 72.976ZM491.034 72.976L492.311 74.5155L492.322 74.5064L492.333 74.4971L491.034 72.976ZM496.282 1.67999V-0.320007H494.282V1.67999H496.282ZM512.538 1.67999H514.538V-0.320007H512.538V1.67999ZM503.578 83.216L504.96 84.6613L504.961 84.6608L503.578 83.216ZM446.746 83.216L445.423 84.7163L445.429 84.7212L445.435 84.7261L446.746 83.216ZM439.018 56.72V1.67999H435.018V56.72H439.018ZM437.018 3.67999H455.066V-0.320007H437.018V3.67999ZM453.066 1.67999V56.464H457.066V1.67999H453.066ZM453.066 56.464C453.066 64.6572 454.832 70.9259 459.015 74.4971L461.613 71.4549C458.799 69.0528 457.066 64.3135 457.066 56.464H453.066ZM459.037 74.5155C463.033 77.8288 468.684 79.328 475.674 79.328V75.328C469.181 75.328 464.593 73.9258 461.591 71.4365L459.037 74.5155ZM475.674 79.328C482.664 79.328 488.315 77.8288 492.311 74.5155L489.757 71.4365C486.755 73.9258 482.167 75.328 475.674 75.328V79.328ZM492.333 74.4971C496.516 70.9259 498.282 64.6572 498.282 56.464H494.282C494.282 64.3135 492.549 69.0528 489.735 71.4549L492.333 74.4971ZM498.282 56.464V1.67999H494.282V56.464H498.282ZM496.282 3.67999H512.538V-0.320007H496.282V3.67999ZM510.538 1.67999V56.72H514.538V1.67999H510.538ZM510.538 56.72C510.538 68.3661 507.627 76.5723 502.195 81.7712L504.961 84.6608C511.476 78.425 514.538 68.9672 514.538 56.72H510.538ZM502.196 81.7707C496.842 86.8919 488.152 89.664 475.674 89.664V93.664C488.625 93.664 498.538 90.8041 504.96 84.6613L502.196 81.7707ZM475.674 89.664C463.127 89.664 454.037 86.8985 448.057 81.7059L445.435 84.7261C452.426 90.7975 462.621 93.664 475.674 93.664V89.664ZM448.069 81.7157C442.16 76.5066 439.018 68.3207 439.018 56.72H435.018C435.018 69.0127 438.362 78.4907 445.423 84.7163L448.069 81.7157ZM566.001 16.784H568.001V14.784H566.001V16.784ZM536.817 16.784H534.817V18.784H536.817V16.784ZM536.817 1.67999V-0.320007H534.817V1.67999H536.817ZM613.361 1.67999H615.361V-0.320007H613.361V1.67999ZM613.361 16.784V18.784H615.361V16.784H613.361ZM584.049 16.784V14.784H582.049V16.784H584.049ZM584.049 90V92H586.049V90H584.049ZM566.001 90H564.001V92H566.001V90ZM566.001 14.784H536.817V18.784H566.001V14.784ZM538.817 16.784V1.67999H534.817V16.784H538.817ZM536.817 3.67999H613.361V-0.320007H536.817V3.67999ZM611.361 1.67999V16.784H615.361V1.67999H611.361ZM613.361 14.784H584.049V18.784H613.361V14.784ZM582.049 16.784V90H586.049V16.784H582.049ZM584.049 88H566.001V92H584.049V88ZM568.001 90V16.784H564.001V90H568.001ZM633.928 23.952L632.033 23.3112L632.033 23.3112L633.928 23.952ZM642.504 10L643.867 11.4632L643.867 11.4632L642.504 10ZM656.584 2.448L657.11 4.37753L657.12 4.37487L657.13 4.37213L656.584 2.448ZM695.496 2.448L694.943 4.36994L694.956 4.37383L694.97 4.37753L695.496 2.448ZM709.576 10L708.213 11.4632L708.221 11.4709L708.229 11.4784L709.576 10ZM718.28 23.952L716.385 24.5928L718.28 23.952ZM718.28 67.088L720.177 67.7205L720.18 67.7123L718.28 67.088ZM709.576 81.424L710.957 82.8707L710.958 82.87L709.576 81.424ZM695.496 89.232L696.049 91.1539L696.049 91.1539L695.496 89.232ZM656.584 89.232L656.031 91.154L656.038 91.1561L656.584 89.232ZM642.504 81.424L641.106 82.8544L641.115 82.8626L641.123 82.8707L642.504 81.424ZM633.928 67.088L632.028 67.7123L632.031 67.7205L633.928 67.088ZM696.008 20.496L694.667 21.9797L694.682 21.9932L694.697 22.0064L696.008 20.496ZM656.072 20.496L657.397 21.994L657.405 21.9869L657.413 21.9797L656.072 20.496ZM656.072 71.184L654.731 72.6677L654.731 72.6677L656.072 71.184ZM696.008 71.312L697.333 72.81L697.335 72.8084L696.008 71.312ZM632.984 45.2C632.984 36.9813 633.95 30.129 635.823 24.5928L632.033 23.3112C629.981 29.3803 628.984 36.6933 628.984 45.2H632.984ZM635.823 24.5928C637.7 19.0435 640.398 14.6961 643.867 11.4632L641.141 8.53678C637.101 12.3013 634.082 17.2552 632.033 23.3112L635.823 24.5928ZM643.867 11.4632C647.354 8.2143 651.748 5.84007 657.11 4.37753L656.058 0.51847C650.156 2.12792 645.163 4.78837 641.141 8.53678L643.867 11.4632ZM657.13 4.37213C662.635 2.81077 668.932 2.016 676.04 2.016V-1.984C668.641 -1.984 661.967 -1.15744 656.038 0.52387L657.13 4.37213ZM676.04 2.016C683.236 2.016 689.529 2.8115 694.943 4.36994L696.049 0.526053C690.199 -1.15817 683.521 -1.984 676.04 -1.984V2.016ZM694.97 4.37753C700.332 5.84007 704.726 8.2143 708.213 11.4632L710.939 8.53678C706.917 4.78837 701.924 2.12792 696.022 0.51847L694.97 4.37753ZM708.229 11.4784C711.777 14.711 714.512 19.0535 716.385 24.5928L720.175 23.3112C718.123 17.2451 715.055 12.2863 710.923 8.52161L708.229 11.4784ZM716.385 24.5928C718.258 30.129 719.224 36.9813 719.224 45.2H723.224C723.224 36.6933 722.227 29.3803 720.175 23.3112L716.385 24.5928ZM719.224 45.2C719.224 53.6795 718.257 60.751 716.38 66.4637L720.18 67.7123C722.228 61.4783 723.224 53.9579 723.224 45.2H719.224ZM716.383 66.4555C714.506 72.0866 711.762 76.569 708.194 79.978L710.958 82.87C715.07 78.9404 718.129 73.8654 720.177 67.7205L716.383 66.4555ZM708.195 79.9773C704.703 83.311 700.305 85.7664 694.943 87.3101L696.049 91.1539C701.951 89.455 706.94 86.705 710.957 82.8707L708.195 79.9773ZM694.943 87.3101C689.529 88.8685 683.236 89.664 676.04 89.664V93.664C683.521 93.664 690.199 92.8382 696.049 91.1539L694.943 87.3101ZM676.04 89.664C668.932 89.664 662.635 88.8692 657.13 87.3079L656.038 91.1561C661.967 92.8374 668.641 93.664 676.04 93.664V89.664ZM657.137 87.3101C651.775 85.7664 647.377 83.311 643.885 79.9773L641.123 82.8707C645.14 86.705 650.129 89.455 656.031 91.1539L657.137 87.3101ZM643.902 79.9936C640.413 76.5839 637.706 72.0964 635.825 66.4555L632.031 67.7205C634.076 73.8556 637.086 78.9255 641.106 82.8544L643.902 79.9936ZM635.828 66.4637C633.951 60.751 632.984 53.6795 632.984 45.2H628.984C628.984 53.9579 629.98 61.4783 632.028 67.7123L635.828 66.4637ZM704.792 50.96V40.208H700.792V50.96H704.792ZM704.792 40.208C704.792 30.7249 702.47 23.4563 697.319 18.9856L694.697 22.0064C698.591 25.3863 700.792 31.2591 700.792 40.208H704.792ZM697.349 19.0122C692.401 14.54 685.176 12.48 676.04 12.48V16.48C684.654 16.48 690.74 18.4307 694.667 21.9797L697.349 19.0122ZM676.04 12.48C666.904 12.48 659.679 14.54 654.731 19.0122L657.413 21.9797C661.34 18.4307 667.426 16.48 676.04 16.48V12.48ZM654.747 18.998C649.69 23.4714 647.416 30.7351 647.416 40.208H651.416C651.416 31.2489 653.579 25.3713 657.397 21.994L654.747 18.998ZM647.416 40.208V50.96H651.416V40.208H647.416ZM647.416 50.96C647.416 60.6734 649.682 68.1046 654.731 72.6677L657.413 69.7003C653.587 66.2421 651.416 60.1906 651.416 50.96H647.416ZM654.731 72.6677C659.679 77.14 666.904 79.2 676.04 79.2V75.2C667.426 75.2 661.34 73.2493 657.413 69.7003L654.731 72.6677ZM676.04 79.2C685.167 79.2 692.385 77.1869 697.333 72.81L694.683 69.814C690.756 73.2878 684.663 75.2 676.04 75.2V79.2ZM697.335 72.8084C702.481 68.2446 704.792 60.7618 704.792 50.96H700.792C700.792 60.2729 698.58 66.358 694.681 69.8156L697.335 72.8084ZM745.418 64.528V62.528H743.294L743.422 64.6485L745.418 64.528ZM763.85 64.528L765.837 64.3036L765.637 62.528H763.85V64.528ZM769.738 75.152L768.79 76.9129L768.816 76.9273L768.844 76.9409L769.738 75.152ZM798.922 74.896L797.939 73.154L797.93 73.1595L797.92 73.1651L798.922 74.896ZM794.954 54.8L794.556 56.7601L794.562 56.7612L794.954 54.8ZM775.37 51.6L775.084 53.5794L775.097 53.5813L775.11 53.5831L775.37 51.6ZM755.786 45.456L754.841 47.2186L754.856 47.2267L754.871 47.2346L755.786 45.456ZM756.426 6.41599L757.53 8.08356L757.535 8.08009L756.426 6.41599ZM809.546 6.032L808.484 7.72672L808.497 7.73496L808.51 7.743L809.546 6.032ZM819.914 25.616V27.616H822.01L821.912 25.5226L819.914 25.616ZM801.482 25.616L799.487 25.7637L799.625 27.616H801.482V25.616ZM795.978 16.4L795.084 18.1888L795.112 18.2028L795.14 18.2159L795.978 16.4ZM769.226 16.656L770.177 18.4154L770.195 18.4056L770.213 18.3954L769.226 16.656ZM773.45 36.112L773.058 38.0732L773.071 38.0759L773.085 38.0784L773.45 36.112ZM793.034 39.44L792.725 41.4159L792.736 41.4177L792.748 41.4194L793.034 39.44ZM812.618 45.584L811.703 47.3626L811.703 47.3626L812.618 45.584ZM812.106 85.264L810.986 83.6068L810.976 83.6139L812.106 85.264ZM756.042 85.52L754.974 87.211L754.974 87.211L756.042 85.52ZM745.418 66.528H763.85V62.528H745.418V66.528ZM761.863 64.7524C762.501 70.4077 764.67 74.6945 768.79 76.9129L770.686 73.3911C768.15 72.0255 766.394 69.2297 765.837 64.3036L761.863 64.7524ZM768.844 76.9409C772.662 78.8502 777.931 79.712 784.458 79.712V75.712C778.185 75.712 773.64 74.8672 770.632 73.3631L768.844 76.9409ZM784.458 79.712C790.991 79.712 796.231 78.7648 799.924 76.6269L797.92 73.1651C795.127 74.7819 790.725 75.712 784.458 75.712V79.712ZM799.905 76.638C804.001 74.3273 805.914 70.3217 805.914 65.168H801.914C801.914 69.2303 800.499 71.71 797.939 73.154L799.905 76.638ZM805.914 65.168C805.914 61.954 805.068 59.1561 803.187 56.9803C801.319 54.8189 798.624 53.4943 795.346 52.8388L794.562 56.7612C797.258 57.3003 799.042 58.301 800.161 59.5957C801.267 60.8759 801.914 62.6647 801.914 65.168H805.914ZM795.352 52.8399C789.41 51.6344 782.835 50.5605 775.63 49.6169L775.11 53.5831C782.241 54.5168 788.722 55.5763 794.556 56.7601L795.352 52.8399ZM775.656 49.6206C768.778 48.6262 762.465 46.6417 756.701 43.6774L754.871 47.2346C761.054 50.4143 767.796 52.5258 775.084 53.5794L775.656 49.6206ZM756.731 43.6934C751.75 41.0224 748.954 35.5942 748.954 26.512H744.954C744.954 36.3738 748.046 43.5749 754.841 47.2186L756.731 43.6934ZM748.954 26.512C748.954 17.8003 751.901 11.8111 757.53 8.08355L755.322 4.74843C748.322 9.3836 744.954 16.7917 744.954 26.512H748.954ZM757.535 8.08009C763.485 4.11358 771.918 2.016 783.05 2.016V-1.984C771.483 -1.984 762.167 0.185084 755.317 4.75189L757.535 8.08009ZM783.05 2.016C794.111 2.016 802.522 3.99071 808.484 7.72672L810.608 4.33727C803.77 0.0519518 794.517 -1.984 783.05 -1.984V2.016ZM808.51 7.743C814.303 11.249 817.513 17.0876 817.916 25.7094L821.912 25.5226C821.461 15.8831 817.76 8.66563 810.582 4.321L808.51 7.743ZM819.914 23.616H801.482V27.616H819.914V23.616ZM803.477 25.4683C803.098 20.3565 800.983 16.5075 796.816 14.5841L795.14 18.2159C797.629 19.3645 799.183 21.6595 799.487 25.7637L803.477 25.4683ZM796.872 14.6111C793.251 12.8002 788.599 11.968 783.05 11.968V15.968C788.253 15.968 792.22 16.7571 795.084 18.1888L796.872 14.6111ZM783.05 11.968C776.85 11.968 771.836 12.8752 768.239 14.9166L770.213 18.3954C772.931 16.8528 777.133 15.968 783.05 15.968V11.968ZM768.275 14.8966C764.269 17.0618 762.49 21.0904 762.49 26.256H766.49C766.49 22.0349 767.868 19.6636 770.177 18.4154L768.275 14.8966ZM762.49 26.256C762.49 29.3312 763.355 32.0123 765.25 34.0973C767.121 36.1548 769.805 37.4226 773.058 38.0732L773.842 34.1508C771.122 33.6067 769.326 32.6345 768.21 31.4067C767.119 30.2063 766.49 28.5568 766.49 26.256H762.49ZM773.085 38.0784C779.08 39.1917 785.626 40.3042 792.725 41.4159L793.343 37.4641C786.276 36.3572 779.767 35.251 773.815 34.1456L773.085 38.0784ZM792.748 41.4194C799.626 42.4138 805.939 44.3983 811.703 47.3626L813.533 43.8054C807.35 40.6257 800.608 38.5142 793.32 37.4606L792.748 41.4194ZM811.703 47.3626C816.76 49.9631 819.578 55.2613 819.578 64.144H823.578C823.578 54.424 820.423 47.3489 813.533 43.8054L811.703 47.3626ZM819.578 64.144C819.578 73.5069 816.594 79.8177 810.986 83.6068L813.226 86.9212C820.247 82.177 823.578 74.4078 823.578 64.144H819.578ZM810.976 83.6139C805.225 87.5526 796.523 89.664 784.586 89.664V93.664C796.883 93.664 806.528 91.5087 813.236 86.9141L810.976 83.6139ZM784.586 89.664C772.204 89.664 763.132 87.6324 757.11 83.829L754.974 87.211C761.923 91.5996 771.88 93.664 784.586 93.664V89.664ZM757.11 83.829C751.324 80.1745 747.985 73.8716 747.414 64.4075L743.422 64.6485C744.045 74.9817 747.79 82.6735 754.974 87.211L757.11 83.829Z" fill="#00666C" fill-opacity="0.2"/>
<path d="M19.28 74L9.16 54.44V74H2.68V46.4H12.28L22.36 65.92V46.4H28.84V74H19.28ZM32.61 63.8C32.61 61.7467 32.85 60.0267 33.33 58.64C33.8367 57.2533 34.5567 56.1467 35.49 55.32C36.45 54.4933 37.65 53.9067 39.09 53.56C40.53 53.2133 42.1833 53.04 44.05 53.04C45.9433 53.04 47.61 53.2133 49.05 53.56C50.49 53.9067 51.69 54.4933 52.65 55.32C53.61 56.1467 54.33 57.2533 54.81 58.64C55.29 60.0267 55.53 61.7467 55.53 63.8C55.53 65.88 55.29 67.6133 54.81 69C54.33 70.3867 53.61 71.4933 52.65 72.32C51.69 73.1467 50.49 73.72 49.05 74.04C47.61 74.3867 45.9433 74.56 44.05 74.56C42.1833 74.56 40.53 74.3867 39.09 74.04C37.65 73.72 36.45 73.1467 35.49 72.32C34.5567 71.4933 33.8367 70.3867 33.33 69C32.85 67.6133 32.61 65.88 32.61 63.8ZM48.65 65.52V62.12C48.65 60.44 48.2633 59.2933 47.49 58.68C46.7167 58.04 45.57 57.72 44.05 57.72C42.5567 57.72 41.4233 58.04 40.65 58.68C39.8767 59.2933 39.49 60.44 39.49 62.12V65.52C39.49 67.1733 39.8767 68.32 40.65 68.96C41.4233 69.5733 42.5567 69.88 44.05 69.88C45.57 69.88 46.7167 69.5733 47.49 68.96C48.2633 68.32 48.65 67.1733 48.65 65.52ZM63.9263 74L56.5263 53.6H63.2063L68.2863 68.12L73.2463 53.6H79.3263L72.0463 74H63.9263ZM80.0272 68.44C80.0272 66.3333 80.7339 64.7467 82.1472 63.68C83.5605 62.5867 85.8005 61.9467 88.8672 61.76L94.7472 61.48V60.72C94.7472 59.52 94.4539 58.6933 93.8672 58.24C93.2805 57.76 92.4005 57.52 91.2272 57.52C90.1339 57.52 89.3205 57.7067 88.7872 58.08C88.2539 58.4267 87.9072 58.9733 87.7472 59.72H80.7472C81.0139 57.5333 82.0005 55.88 83.7072 54.76C85.4405 53.6133 87.9739 53.04 91.3072 53.04C94.6939 53.04 97.2272 53.6667 98.9072 54.92C100.614 56.1467 101.467 58.08 101.467 60.72V74H94.9472V71.2C94.2805 72.2667 93.3205 73.0933 92.0672 73.68C90.8139 74.2667 89.2139 74.56 87.2672 74.56C84.8939 74.56 83.0939 74.0133 81.8672 72.92C80.6405 71.8 80.0272 70.3067 80.0272 68.44ZM86.9072 68C86.9072 68.72 87.1472 69.2533 87.6272 69.6C88.1339 69.9467 88.8805 70.12 89.8672 70.12C91.3605 70.12 92.5472 69.7867 93.4272 69.12C94.3072 68.4267 94.7472 67.4 94.7472 66.04V65.16L90.0272 65.4C88.9339 65.48 88.1339 65.68 87.6272 66C87.1472 66.32 86.9072 66.8267 86.9072 67.52V68ZM104.753 67.52H111.633C111.686 68.5333 112.059 69.24 112.753 69.64C113.446 70.0133 114.393 70.2 115.593 70.2C116.846 70.2 117.779 70.04 118.393 69.72C119.006 69.4 119.313 68.9067 119.313 68.24C119.313 67.12 118.566 66.48 117.073 66.32C115.606 66.16 113.993 65.9733 112.233 65.76C110.473 65.5467 108.846 65.04 107.353 64.24C105.886 63.44 105.153 61.8533 105.153 59.48C105.153 57.24 106.033 55.6133 107.793 54.6C109.579 53.56 112.006 53.04 115.073 53.04C118.166 53.04 120.633 53.56 122.473 54.6C124.339 55.6133 125.326 57.3067 125.433 59.68H118.553C118.473 58.7733 118.126 58.1733 117.513 57.88C116.899 57.56 116.086 57.4 115.073 57.4C114.033 57.4 113.233 57.5467 112.673 57.84C112.113 58.1067 111.833 58.56 111.833 59.2C111.833 60.24 112.566 60.84 114.033 61C115.526 61.1333 117.139 61.32 118.873 61.56C120.633 61.7733 122.246 62.2933 123.713 63.12C125.206 63.92 125.953 65.52 125.953 67.92C125.953 70.24 125.046 71.9333 123.233 73C121.419 74.04 118.873 74.56 115.593 74.56C112.233 74.56 109.619 74.0133 107.753 72.92C105.886 71.8 104.886 70 104.753 67.52ZM136.706 67.52H143.586C143.639 68.5333 144.013 69.24 144.706 69.64C145.399 70.0133 146.346 70.2 147.546 70.2C148.799 70.2 149.733 70.04 150.346 69.72C150.959 69.4 151.266 68.9067 151.266 68.24C151.266 67.12 150.519 66.48 149.026 66.32C147.559 66.16 145.946 65.9733 144.186 65.76C142.426 65.5467 140.799 65.04 139.306 64.24C137.839 63.44 137.106 61.8533 137.106 59.48C137.106 57.24 137.986 55.6133 139.746 54.6C141.533 53.56 143.959 53.04 147.026 53.04C150.119 53.04 152.586 53.56 154.426 54.6C156.293 55.6133 157.279 57.3067 157.386 59.68H150.506C150.426 58.7733 150.079 58.1733 149.466 57.88C148.853 57.56 148.039 57.4 147.026 57.4C145.986 57.4 145.186 57.5467 144.626 57.84C144.066 58.1067 143.786 58.56 143.786 59.2C143.786 60.24 144.519 60.84 145.986 61C147.479 61.1333 149.093 61.32 150.826 61.56C152.586 61.7733 154.199 62.2933 155.666 63.12C157.159 63.92 157.906 65.52 157.906 67.92C157.906 70.24 156.999 71.9333 155.186 73C153.373 74.04 150.826 74.56 147.546 74.56C144.186 74.56 141.573 74.0133 139.706 72.92C137.839 71.8 136.839 70 136.706 67.52ZM160.383 63.8C160.383 61.7467 160.623 60.0267 161.103 58.64C161.61 57.2533 162.33 56.1467 163.263 55.32C164.223 54.4933 165.423 53.9067 166.863 53.56C168.303 53.2133 169.957 53.04 171.823 53.04C173.717 53.04 175.383 53.2133 176.823 53.56C178.263 53.9067 179.463 54.4933 180.423 55.32C181.383 56.1467 182.103 57.2533 182.583 58.64C183.063 60.0267 183.303 61.7467 183.303 63.8C183.303 65.88 183.063 67.6133 182.583 69C182.103 70.3867 181.383 71.4933 180.423 72.32C179.463 73.1467 178.263 73.72 176.823 74.04C175.383 74.3867 173.717 74.56 171.823 74.56C169.957 74.56 168.303 74.3867 166.863 74.04C165.423 73.72 164.223 73.1467 163.263 72.32C162.33 71.4933 161.61 70.3867 161.103 69C160.623 67.6133 160.383 65.88 160.383 63.8ZM176.423 65.52V62.12C176.423 60.44 176.037 59.2933 175.263 58.68C174.49 58.04 173.343 57.72 171.823 57.72C170.33 57.72 169.197 58.04 168.423 58.68C167.65 59.2933 167.263 60.44 167.263 62.12V65.52C167.263 67.1733 167.65 68.32 168.423 68.96C169.197 69.5733 170.33 69.88 171.823 69.88C173.343 69.88 174.49 69.5733 175.263 68.96C176.037 68.32 176.423 67.1733 176.423 65.52ZM187.008 44.8H193.728V74H187.008V44.8ZM198.254 66.76V53.6H205.014V66.56C205.014 67.84 205.32 68.7067 205.934 69.16C206.574 69.6133 207.534 69.84 208.814 69.84C209.987 69.84 210.947 69.6 211.694 69.12C212.467 68.64 212.854 67.7867 212.854 66.56V53.6H219.574V74H213.014V70.92C212.427 72.1733 211.494 73.0933 210.214 73.68C208.934 74.2667 207.494 74.56 205.894 74.56C203.467 74.56 201.587 73.9733 200.254 72.8C198.92 71.6267 198.254 69.6133 198.254 66.76ZM223.353 63.8C223.353 59.8533 224.22 57.08 225.953 55.48C227.713 53.8533 230.406 53.04 234.033 53.04C237.1 53.04 239.54 53.5733 241.353 54.64C243.166 55.7067 244.193 57.52 244.433 60.08H237.553C237.446 59.3333 237.126 58.76 236.593 58.36C236.06 57.9333 235.206 57.72 234.033 57.72C232.726 57.72 231.766 58.0133 231.153 58.6C230.54 59.1867 230.233 60.2 230.233 61.64V65.8C230.233 67.32 230.553 68.3867 231.193 69C231.86 69.5867 232.806 69.88 234.033 69.88C235.26 69.88 236.14 69.6667 236.673 69.24C237.206 68.7867 237.526 68.1867 237.633 67.44H244.513C244.22 69.7867 243.22 71.56 241.513 72.76C239.833 73.96 237.34 74.56 234.033 74.56C232.273 74.56 230.713 74.3867 229.353 74.04C228.02 73.6933 226.913 73.1067 226.033 72.28C225.153 71.4533 224.486 70.3467 224.033 68.96C223.58 67.5733 223.353 65.8533 223.353 63.8ZM230.913 82.96V79.6C232.46 79.6 233.406 79.52 233.753 79.36C234.126 79.2267 234.313 78.9467 234.313 78.52C234.313 78.0933 234.113 77.8133 233.713 77.68C233.34 77.5733 232.486 77.52 231.153 77.52V74H235.593V75.36C236.82 75.4667 237.86 75.7333 238.713 76.16C239.566 76.6133 239.993 77.56 239.993 79C239.993 80.28 239.486 81.2533 238.473 81.92C237.486 82.6133 236.113 82.96 234.353 82.96H230.913ZM246.829 63.8C246.829 61.7467 247.069 60.0267 247.549 58.64C248.055 57.2533 248.775 56.1467 249.709 55.32C250.669 54.4933 251.869 53.9067 253.309 53.56C254.749 53.2133 256.402 53.04 258.269 53.04C260.162 53.04 261.829 53.2133 263.269 53.56C264.709 53.9067 265.909 54.4933 266.869 55.32C267.829 56.1467 268.549 57.2533 269.029 58.64C269.509 60.0267 269.749 61.7467 269.749 63.8C269.749 65.88 269.509 67.6133 269.029 69C268.549 70.3867 267.829 71.4933 266.869 72.32C265.909 73.1467 264.709 73.72 263.269 74.04C261.829 74.3867 260.162 74.56 258.269 74.56C256.402 74.56 254.749 74.3867 253.309 74.04C251.869 73.72 250.669 73.1467 249.709 72.32C248.775 71.4933 248.055 70.3867 247.549 69C247.069 67.6133 246.829 65.88 246.829 63.8ZM262.869 65.52V62.12C262.869 60.44 262.482 59.2933 261.709 58.68C260.935 58.04 259.789 57.72 258.269 57.72C256.775 57.72 255.642 58.04 254.869 58.68C254.095 59.2933 253.709 60.44 253.709 62.12V65.52C253.709 67.1733 254.095 68.32 254.869 68.96C255.642 69.5733 256.775 69.88 258.269 69.88C259.789 69.88 260.935 69.5733 261.709 68.96C262.482 68.32 262.869 67.1733 262.869 65.52ZM254.909 43.2C255.762 43.2 256.482 43.3467 257.069 43.64C257.682 43.9333 258.202 44.2533 258.629 44.6C259.055 44.92 259.429 45.2267 259.749 45.52C260.095 45.8133 260.455 45.96 260.829 45.96C261.255 45.96 261.575 45.7333 261.789 45.28C262.002 44.8267 262.109 44.1867 262.109 43.36H266.349C266.349 45.7067 265.962 47.5067 265.189 48.76C264.415 49.9867 263.255 50.6 261.709 50.6C260.829 50.6 260.082 50.4533 259.469 50.16C258.882 49.8667 258.375 49.5467 257.949 49.2C257.522 48.8533 257.135 48.5333 256.789 48.24C256.469 47.9467 256.135 47.8 255.789 47.8C255.362 47.8 255.029 48.04 254.789 48.52C254.575 48.9733 254.469 49.6133 254.469 50.44H250.229C250.229 48.0933 250.615 46.3067 251.389 45.08C252.162 43.8267 253.335 43.2 254.909 43.2ZM272.414 63.88C272.414 60.0133 273.334 57.24 275.174 55.56C277.04 53.88 279.734 53.04 283.254 53.04C286.8 53.04 289.507 53.84 291.374 55.44C293.24 57.0133 294.174 59.6267 294.174 63.28V64.56H279.054V65.52C279.054 67.2 279.427 68.3867 280.174 69.08C280.92 69.7467 281.947 70.08 283.254 70.08C284.507 70.08 285.467 69.8533 286.134 69.4C286.827 68.9467 287.24 68.2533 287.374 67.32H294.094C293.747 69.7733 292.64 71.6 290.774 72.8C288.934 73.9733 286.427 74.56 283.254 74.56C279.734 74.56 277.04 73.7467 275.174 72.12C273.334 70.4667 272.414 67.72 272.414 63.88ZM283.254 57.52C281.92 57.52 280.88 57.8133 280.134 58.4C279.414 58.96 279.054 59.8533 279.054 61.08H287.494C287.467 59.8267 287.094 58.92 286.374 58.36C285.654 57.8 284.614 57.52 283.254 57.52ZM296.667 67.52H303.547C303.6 68.5333 303.974 69.24 304.667 69.64C305.36 70.0133 306.307 70.2 307.507 70.2C308.76 70.2 309.694 70.04 310.307 69.72C310.92 69.4 311.227 68.9067 311.227 68.24C311.227 67.12 310.48 66.48 308.987 66.32C307.52 66.16 305.907 65.9733 304.147 65.76C302.387 65.5467 300.76 65.04 299.267 64.24C297.8 63.44 297.067 61.8533 297.067 59.48C297.067 57.24 297.947 55.6133 299.707 54.6C301.494 53.56 303.92 53.04 306.987 53.04C310.08 53.04 312.547 53.56 314.387 54.6C316.254 55.6133 317.24 57.3067 317.347 59.68H310.467C310.387 58.7733 310.04 58.1733 309.427 57.88C308.814 57.56 308 57.4 306.987 57.4C305.947 57.4 305.147 57.5467 304.587 57.84C304.027 58.1067 303.747 58.56 303.747 59.2C303.747 60.24 304.48 60.84 305.947 61C307.44 61.1333 309.054 61.32 310.787 61.56C312.547 61.7733 314.16 62.2933 315.627 63.12C317.12 63.92 317.867 65.52 317.867 67.92C317.867 70.24 316.96 71.9333 315.147 73C313.334 74.04 310.787 74.56 307.507 74.56C304.147 74.56 301.534 74.0133 299.667 72.92C297.8 71.8 296.8 70 296.667 67.52ZM328.9 63.92C328.9 60.0533 329.713 57.28 331.34 55.6C332.967 53.8933 335.22 53.04 338.1 53.04C339.62 53.04 340.953 53.28 342.1 53.76C343.247 54.2133 344.18 54.9333 344.9 55.92V44.8H351.66V74H345.1V71.4C344.38 72.4933 343.433 73.2933 342.26 73.8C341.087 74.3067 339.7 74.56 338.1 74.56C335.247 74.56 332.993 73.7333 331.34 72.08C329.713 70.4 328.9 67.68 328.9 63.92ZM344.9 65.72V61.92C344.9 60.4533 344.527 59.3867 343.78 58.72C343.033 58.0533 341.887 57.72 340.34 57.72C338.82 57.72 337.673 58.0533 336.9 58.72C336.153 59.3867 335.78 60.4667 335.78 61.96V65.72C335.78 67.2133 336.167 68.28 336.94 68.92C337.713 69.56 338.86 69.88 340.38 69.88C341.9 69.88 343.033 69.56 343.78 68.92C344.527 68.28 344.9 67.2133 344.9 65.72ZM355.343 63.88C355.343 60.0133 356.263 57.24 358.103 55.56C359.97 53.88 362.663 53.04 366.183 53.04C369.73 53.04 372.437 53.84 374.303 55.44C376.17 57.0133 377.103 59.6267 377.103 63.28V64.56H361.983V65.52C361.983 67.2 362.357 68.3867 363.103 69.08C363.85 69.7467 364.877 70.08 366.183 70.08C367.437 70.08 368.397 69.8533 369.063 69.4C369.757 68.9467 370.17 68.2533 370.303 67.32H377.023C376.677 69.7733 375.57 71.6 373.703 72.8C371.863 73.9733 369.357 74.56 366.183 74.56C362.663 74.56 359.97 73.7467 358.103 72.12C356.263 70.4667 355.343 67.72 355.343 63.88ZM366.183 57.52C364.85 57.52 363.81 57.8133 363.063 58.4C362.343 58.96 361.983 59.8533 361.983 61.08H370.423C370.397 59.8267 370.023 58.92 369.303 58.36C368.583 57.8 367.543 57.52 366.183 57.52ZM389.352 53.6H395.912V56.28C396.659 55.16 397.632 54.3467 398.832 53.84C400.059 53.3067 401.526 53.04 403.232 53.04C406.006 53.04 408.179 53.8933 409.752 55.6C411.326 57.28 412.112 60.04 412.112 63.88C412.112 67.6133 411.326 70.3333 409.752 72.04C408.206 73.72 406.032 74.56 403.232 74.56C401.606 74.56 400.192 74.32 398.992 73.84C397.792 73.36 396.819 72.6133 396.072 71.6V82H389.352V53.6ZM405.232 65.72V61.92C405.232 60.4267 404.846 59.36 404.072 58.72C403.326 58.0533 402.192 57.72 400.672 57.72C399.099 57.72 397.939 58.0533 397.192 58.72C396.446 59.36 396.072 60.4267 396.072 61.92V65.72C396.072 67.2133 396.446 68.28 397.192 68.92C397.966 69.56 399.112 69.88 400.632 69.88C402.152 69.88 403.299 69.56 404.072 68.92C404.846 68.28 405.232 67.2133 405.232 65.72ZM414.876 63.8C414.876 61.7467 415.116 60.0267 415.596 58.64C416.102 57.2533 416.822 56.1467 417.756 55.32C418.716 54.4933 419.916 53.9067 421.356 53.56C422.796 53.2133 424.449 53.04 426.316 53.04C428.209 53.04 429.876 53.2133 431.316 53.56C432.756 53.9067 433.956 54.4933 434.916 55.32C435.876 56.1467 436.596 57.2533 437.076 58.64C437.556 60.0267 437.796 61.7467 437.796 63.8C437.796 65.88 437.556 67.6133 437.076 69C436.596 70.3867 435.876 71.4933 434.916 72.32C433.956 73.1467 432.756 73.72 431.316 74.04C429.876 74.3867 428.209 74.56 426.316 74.56C424.449 74.56 422.796 74.3867 421.356 74.04C419.916 73.72 418.716 73.1467 417.756 72.32C416.822 71.4933 416.102 70.3867 415.596 69C415.116 67.6133 414.876 65.88 414.876 63.8ZM430.916 65.52V62.12C430.916 60.44 430.529 59.2933 429.756 58.68C428.982 58.04 427.836 57.72 426.316 57.72C424.822 57.72 423.689 58.04 422.916 58.68C422.142 59.2933 421.756 60.44 421.756 62.12V65.52C421.756 67.1733 422.142 68.32 422.916 68.96C423.689 69.5733 424.822 69.88 426.316 69.88C427.836 69.88 428.982 69.5733 429.756 68.96C430.529 68.32 430.916 67.1733 430.916 65.52ZM456.061 74V61.04C456.061 59.7867 455.741 58.9333 455.101 58.48C454.461 58.0267 453.514 57.8 452.261 57.8C451.061 57.8 450.087 58.04 449.341 58.52C448.594 59 448.221 59.84 448.221 61.04V74H441.501V53.6H448.061V56.68C448.647 55.4533 449.581 54.5467 450.861 53.96C452.141 53.3467 453.581 53.04 455.181 53.04C457.661 53.04 459.554 53.6667 460.861 54.92C462.167 56.1733 462.821 58.1467 462.821 60.84V74H456.061ZM468.201 66.88V58.84H465.681V53.6H468.201V47.52H474.961V53.6H480.281V58.84H474.961V66.04C474.961 67 475.161 67.7067 475.561 68.16C475.961 68.5867 476.681 68.8 477.721 68.8H480.281V74H475.241C472.628 74 470.801 73.44 469.761 72.32C468.721 71.1733 468.201 69.36 468.201 66.88ZM482.527 68.44C482.527 66.3333 483.234 64.7467 484.647 63.68C486.061 62.5867 488.301 61.9467 491.367 61.76L497.247 61.48V60.72C497.247 59.52 496.954 58.6933 496.367 58.24C495.781 57.76 494.901 57.52 493.727 57.52C492.634 57.52 491.821 57.7067 491.287 58.08C490.754 58.4267 490.407 58.9733 490.247 59.72H483.247C483.514 57.5333 484.501 55.88 486.207 54.76C487.941 53.6133 490.474 53.04 493.807 53.04C497.194 53.04 499.727 53.6667 501.407 54.92C503.114 56.1467 503.967 58.08 503.967 60.72V74H497.447V71.2C496.781 72.2667 495.821 73.0933 494.567 73.68C493.314 74.2667 491.714 74.56 489.767 74.56C487.394 74.56 485.594 74.0133 484.367 72.92C483.141 71.8 482.527 70.3067 482.527 68.44ZM489.407 68C489.407 68.72 489.647 69.2533 490.127 69.6C490.634 69.9467 491.381 70.12 492.367 70.12C493.861 70.12 495.047 69.7867 495.927 69.12C496.807 68.4267 497.247 67.4 497.247 66.04V65.16L492.527 65.4C491.434 65.48 490.634 65.68 490.127 66C489.647 66.32 489.407 66.8267 489.407 67.52V68ZM515.808 68.44C515.808 66.3333 516.515 64.7467 517.928 63.68C519.342 62.5867 521.582 61.9467 524.648 61.76L530.528 61.48V60.72C530.528 59.52 530.235 58.6933 529.648 58.24C529.062 57.76 528.182 57.52 527.008 57.52C525.915 57.52 525.102 57.7067 524.568 58.08C524.035 58.4267 523.688 58.9733 523.528 59.72H516.528C516.795 57.5333 517.782 55.88 519.488 54.76C521.222 53.6133 523.755 53.04 527.088 53.04C530.475 53.04 533.008 53.6667 534.688 54.92C536.395 56.1467 537.248 58.08 537.248 60.72V74H530.728V71.2C530.062 72.2667 529.102 73.0933 527.848 73.68C526.595 74.2667 524.995 74.56 523.048 74.56C520.675 74.56 518.875 74.0133 517.648 72.92C516.422 71.8 515.808 70.3067 515.808 68.44ZM522.688 68C522.688 68.72 522.928 69.2533 523.408 69.6C523.915 69.9467 524.662 70.12 525.648 70.12C527.142 70.12 528.328 69.7867 529.208 69.12C530.088 68.4267 530.528 67.4 530.528 66.04V65.16L525.808 65.4C524.715 65.48 523.915 65.68 523.408 66C522.928 66.32 522.688 66.8267 522.688 67.52V68ZM550.29 53.6H556.85V56.28C557.596 55.16 558.57 54.3467 559.77 53.84C560.996 53.3067 562.463 53.04 564.17 53.04C566.943 53.04 569.116 53.8933 570.69 55.6C572.263 57.28 573.05 60.04 573.05 63.88C573.05 67.6133 572.263 70.3333 570.69 72.04C569.143 73.72 566.97 74.56 564.17 74.56C562.543 74.56 561.13 74.32 559.93 73.84C558.73 73.36 557.756 72.6133 557.01 71.6V82H550.29V53.6ZM566.17 65.72V61.92C566.17 60.4267 565.783 59.36 565.01 58.72C564.263 58.0533 563.13 57.72 561.61 57.72C560.036 57.72 558.876 58.0533 558.13 58.72C557.383 59.36 557.01 60.4267 557.01 61.92V65.72C557.01 67.2133 557.383 68.28 558.13 68.92C558.903 69.56 560.05 69.88 561.57 69.88C563.09 69.88 564.236 69.56 565.01 68.92C565.783 68.28 566.17 67.2133 566.17 65.72ZM575.813 63.8C575.813 61.7467 576.053 60.0267 576.533 58.64C577.04 57.2533 577.76 56.1467 578.693 55.32C579.653 54.4933 580.853 53.9067 582.293 53.56C583.733 53.2133 585.386 53.04 587.253 53.04C589.146 53.04 590.813 53.2133 592.253 53.56C593.693 53.9067 594.893 54.4933 595.853 55.32C596.813 56.1467 597.533 57.2533 598.013 58.64C598.493 60.0267 598.733 61.7467 598.733 63.8C598.733 65.88 598.493 67.6133 598.013 69C597.533 70.3867 596.813 71.4933 595.853 72.32C594.893 73.1467 593.693 73.72 592.253 74.04C590.813 74.3867 589.146 74.56 587.253 74.56C585.386 74.56 583.733 74.3867 582.293 74.04C580.853 73.72 579.653 73.1467 578.693 72.32C577.76 71.4933 577.04 70.3867 576.533 69C576.053 67.6133 575.813 65.88 575.813 63.8ZM591.853 65.52V62.12C591.853 60.44 591.466 59.2933 590.693 58.68C589.92 58.04 588.773 57.72 587.253 57.72C585.76 57.72 584.626 58.04 583.853 58.68C583.08 59.2933 582.693 60.44 582.693 62.12V65.52C582.693 67.1733 583.08 68.32 583.853 68.96C584.626 69.5733 585.76 69.88 587.253 69.88C588.773 69.88 589.92 69.5733 590.693 68.96C591.466 68.32 591.853 67.1733 591.853 65.52ZM616.998 74V61.04C616.998 59.7867 616.678 58.9333 616.038 58.48C615.398 58.0267 614.451 57.8 613.198 57.8C611.998 57.8 611.025 58.04 610.278 58.52C609.531 59 609.158 59.84 609.158 61.04V74H602.438V53.6H608.998V56.68C609.585 55.4533 610.518 54.5467 611.798 53.96C613.078 53.3467 614.518 53.04 616.118 53.04C618.598 53.04 620.491 53.6667 621.798 54.92C623.105 56.1733 623.758 58.1467 623.758 60.84V74H616.998ZM629.138 66.88V58.84H626.618V53.6H629.138V47.52H635.898V53.6H641.218V58.84H635.898V66.04C635.898 67 636.098 67.7067 636.498 68.16C636.898 68.5867 637.618 68.8 638.658 68.8H641.218V74H636.178C633.565 74 631.738 73.44 630.698 72.32C629.658 71.1733 629.138 69.36 629.138 66.88ZM643.465 68.44C643.465 66.3333 644.171 64.7467 645.585 63.68C646.998 62.5867 649.238 61.9467 652.305 61.76L658.185 61.48V60.72C658.185 59.52 657.891 58.6933 657.305 58.24C656.718 57.76 655.838 57.52 654.665 57.52C653.571 57.52 652.758 57.7067 652.225 58.08C651.691 58.4267 651.345 58.9733 651.185 59.72H644.185C644.451 57.5333 645.438 55.88 647.145 54.76C648.878 53.6133 651.411 53.04 654.745 53.04C658.131 53.04 660.665 53.6667 662.345 54.92C664.051 56.1467 664.905 58.08 664.905 60.72V74H658.385V71.2C657.718 72.2667 656.758 73.0933 655.505 73.68C654.251 74.2667 652.651 74.56 650.705 74.56C648.331 74.56 646.531 74.0133 645.305 72.92C644.078 71.8 643.465 70.3067 643.465 68.44ZM650.345 68C650.345 68.72 650.585 69.2533 651.065 69.6C651.571 69.9467 652.318 70.12 653.305 70.12C654.798 70.12 655.985 69.7867 656.865 69.12C657.745 68.4267 658.185 67.4 658.185 66.04V65.16L653.465 65.4C652.371 65.48 651.571 65.68 651.065 66C650.585 66.32 650.345 66.8267 650.345 67.52V68Z" fill="#00666C"/>
</svg>
