<svg width="840" height="92" viewBox="0 0 840 92" fill="none" xmlns="http://www.w3.org/2000/svg">
<path d="M9.216 1.67999V-0.320007H7.216V1.67999H9.216ZM27.392 1.67999H29.392V-0.320007H27.392V1.67999ZM27.392 90V92H29.392V90H27.392ZM9.216 90H7.216V92H9.216V90ZM9.216 3.67999H27.392V-0.320007H9.216V3.67999ZM25.392 1.67999V90H29.392V1.67999H25.392ZM27.392 88H9.216V92H27.392V88ZM11.216 90V1.67999H7.216V90H11.216ZM114.065 90L112.311 90.9612L112.88 92H114.065V90ZM76.817 22.032L78.5709 21.0708L74.817 22.032H76.817ZM76.817 90V92H78.817V90H76.817ZM59.921 90H57.921V92H59.921V90ZM59.921 1.67999V-0.320007H57.921V1.67999H59.921ZM84.625 1.67999L86.3803 0.721362L85.8116 -0.320007H84.625V1.67999ZM121.745 69.648L119.99 70.6066L123.745 69.648H121.745ZM121.745 1.67999V-0.320007H119.745V1.67999H121.745ZM138.641 1.67999H140.641V-0.320007H138.641V1.67999ZM138.641 90V92H140.641V90H138.641ZM115.819 89.0388L78.5709 21.0708L75.0631 22.9932L112.311 90.9612L115.819 89.0388ZM74.817 22.032V90H78.817V22.032H74.817ZM76.817 88H59.921V92H76.817V88ZM61.921 90V1.67999H57.921V90H61.921ZM59.921 3.67999H84.625V-0.320007H59.921V3.67999ZM82.8697 2.63862L119.99 70.6066L123.5 68.6894L86.3803 0.721362L82.8697 2.63862ZM123.745 69.648V1.67999H119.745V69.648H123.745ZM121.745 3.67999H138.641V-0.320007H121.745V3.67999ZM136.641 1.67999V90H140.641V1.67999H136.641ZM138.641 88H114.065V92H138.641V88ZM166.518 64.528V62.528H164.394L164.522 64.6485L166.518 64.528ZM184.95 64.528L186.937 64.3036L186.737 62.528H184.95V64.528ZM190.838 75.152L189.89 76.9129L189.916 76.9273L189.944 76.9409L190.838 75.152ZM220.022 74.896L219.039 73.154L219.03 73.1595L219.02 73.1651L220.022 74.896ZM216.054 54.8L215.656 56.7601L215.662 56.7612L216.054 54.8ZM196.47 51.6L196.184 53.5794L196.197 53.5813L196.21 53.5831L196.47 51.6ZM176.886 45.456L175.941 47.2186L175.956 47.2267L175.971 47.2346L176.886 45.456ZM177.526 6.41599L178.63 8.08356L178.635 8.08009L177.526 6.41599ZM230.646 6.032L229.584 7.72672L229.597 7.73496L229.61 7.743L230.646 6.032ZM241.014 25.616V27.616H243.11L243.012 25.5226L241.014 25.616ZM222.582 25.616L220.587 25.7637L220.725 27.616H222.582V25.616ZM217.078 16.4L216.184 18.1888L216.212 18.2028L216.24 18.2159L217.078 16.4ZM190.326 16.656L191.277 18.4154L191.295 18.4056L191.313 18.3954L190.326 16.656ZM194.55 36.112L194.158 38.0732L194.171 38.0759L194.185 38.0784L194.55 36.112ZM214.134 39.44L213.825 41.4159L213.836 41.4177L213.848 41.4194L214.134 39.44ZM233.718 45.584L232.803 47.3626L232.803 47.3626L233.718 45.584ZM233.206 85.264L232.086 83.6068L232.076 83.6139L233.206 85.264ZM177.142 85.52L176.074 87.211L176.074 87.211L177.142 85.52ZM166.518 66.528H184.95V62.528H166.518V66.528ZM182.963 64.7524C183.601 70.4077 185.77 74.6945 189.89 76.9129L191.786 73.3911C189.25 72.0255 187.494 69.2297 186.937 64.3036L182.963 64.7524ZM189.944 76.9409C193.762 78.8502 199.031 79.712 205.558 79.712V75.712C199.285 75.712 194.74 74.8672 191.732 73.3631L189.944 76.9409ZM205.558 79.712C212.091 79.712 217.331 78.7648 221.024 76.6269L219.02 73.1651C216.227 74.7819 211.825 75.712 205.558 75.712V79.712ZM221.005 76.638C225.101 74.3273 227.014 70.3217 227.014 65.168H223.014C223.014 69.2303 221.599 71.71 219.039 73.154L221.005 76.638ZM227.014 65.168C227.014 61.954 226.168 59.1561 224.287 56.9803C222.419 54.8189 219.724 53.4943 216.446 52.8388L215.662 56.7612C218.358 57.3003 220.142 58.301 221.261 59.5957C222.367 60.8759 223.014 62.6647 223.014 65.168H227.014ZM216.452 52.8399C210.51 51.6344 203.935 50.5605 196.73 49.6169L196.21 53.5831C203.341 54.5168 209.822 55.5763 215.656 56.7601L216.452 52.8399ZM196.756 49.6206C189.878 48.6262 183.565 46.6417 177.801 43.6774L175.971 47.2346C182.154 50.4143 188.896 52.5258 196.184 53.5794L196.756 49.6206ZM177.831 43.6934C172.85 41.0224 170.054 35.5942 170.054 26.512H166.054C166.054 36.3738 169.146 43.5749 175.941 47.2186L177.831 43.6934ZM170.054 26.512C170.054 17.8003 173.001 11.8111 178.63 8.08355L176.422 4.74843C169.422 9.3836 166.054 16.7917 166.054 26.512H170.054ZM178.635 8.08009C184.585 4.11358 193.018 2.016 204.15 2.016V-1.984C192.583 -1.984 183.267 0.185084 176.417 4.75189L178.635 8.08009ZM204.15 2.016C215.211 2.016 223.622 3.99071 229.584 7.72672L231.708 4.33727C224.87 0.0519518 215.617 -1.984 204.15 -1.984V2.016ZM229.61 7.743C235.403 11.249 238.613 17.0876 239.016 25.7094L243.012 25.5226C242.561 15.8831 238.86 8.66563 231.682 4.321L229.61 7.743ZM241.014 23.616H222.582V27.616H241.014V23.616ZM224.577 25.4683C224.198 20.3565 222.083 16.5075 217.916 14.5841L216.24 18.2159C218.729 19.3645 220.283 21.6595 220.587 25.7637L224.577 25.4683ZM217.972 14.6111C214.351 12.8002 209.699 11.968 204.15 11.968V15.968C209.353 15.968 213.32 16.7571 216.184 18.1888L217.972 14.6111ZM204.15 11.968C197.95 11.968 192.936 12.8752 189.339 14.9166L191.313 18.3954C194.031 16.8528 198.233 15.968 204.15 15.968V11.968ZM189.375 14.8966C185.369 17.0618 183.59 21.0904 183.59 26.256H187.59C187.59 22.0349 188.968 19.6636 191.277 18.4154L189.375 14.8966ZM183.59 26.256C183.59 29.3312 184.455 32.0123 186.35 34.0973C188.221 36.1548 190.905 37.4226 194.158 38.0732L194.942 34.1508C192.222 33.6067 190.426 32.6345 189.31 31.4067C188.219 30.2063 187.59 28.5568 187.59 26.256H183.59ZM194.185 38.0784C200.18 39.1917 206.726 40.3042 213.825 41.4159L214.443 37.4641C207.376 36.3572 200.867 35.251 194.915 34.1456L194.185 38.0784ZM213.848 41.4194C220.726 42.4138 227.039 44.3983 232.803 47.3626L234.633 43.8054C228.45 40.6257 221.708 38.5142 214.42 37.4606L213.848 41.4194ZM232.803 47.3626C237.86 49.9631 240.678 55.2613 240.678 64.144H244.678C244.678 54.424 241.523 47.3489 234.633 43.8054L232.803 47.3626ZM240.678 64.144C240.678 73.5069 237.694 79.8177 232.086 83.6068L234.326 86.9212C241.347 82.177 244.678 74.4078 244.678 64.144H240.678ZM232.076 83.6139C226.325 87.5526 217.623 89.664 205.686 89.664V93.664C217.983 93.664 227.628 91.5087 234.336 86.9141L232.076 83.6139ZM205.686 89.664C193.304 89.664 184.232 87.6324 178.21 83.829L176.074 87.211C183.023 91.5996 192.98 93.664 205.686 93.664V89.664ZM178.21 83.829C172.424 80.1745 169.085 73.8716 168.514 64.4075L164.522 64.6485C165.145 74.9817 168.89 82.6735 176.074 87.211L178.21 83.829ZM270.706 1.67999V-0.320007H268.706V1.67999H270.706ZM288.882 1.67999H290.882V-0.320007H288.882V1.67999ZM288.882 90V92H290.882V90H288.882ZM270.706 90H268.706V92H270.706V90ZM270.706 3.67999H288.882V-0.320007H270.706V3.67999ZM286.882 1.67999V90H290.882V1.67999H286.882ZM288.882 88H270.706V92H288.882V88ZM272.706 90V1.67999H268.706V90H272.706ZM328.963 10.256L330.317 11.7282L330.317 11.7282L328.963 10.256ZM388.227 6.8L387.113 8.46088L387.122 8.46729L388.227 6.8ZM400.387 29.2V31.2H402.648L402.372 28.9559L400.387 29.2ZM381.955 29.2L379.978 29.4996L380.235 31.2H381.955V29.2ZM375.171 17.552L376.176 15.823L376.176 15.823L375.171 17.552ZM342.531 19.856L341.227 18.3396L341.227 18.3396L342.531 19.856ZM342.403 71.696L341.05 73.1691L341.066 73.1834L341.082 73.1974L342.403 71.696ZM377.603 72.464L376.296 70.9504L376.287 70.9578L376.279 70.9653L377.603 72.464ZM383.747 57.36L385.745 57.4599L385.85 55.36H383.747V57.36ZM361.091 57.36H359.091V59.36H361.091V57.36ZM361.091 44.56V42.56H359.091V44.56H361.091ZM401.667 44.56H403.667V42.56H401.667V44.56ZM390.915 82.192L389.593 80.6913L389.593 80.6913L390.915 82.192ZM342.019 89.36L341.424 91.2695L341.443 91.2753L341.461 91.2807L342.019 89.36ZM328.835 81.552L327.404 82.9491L327.412 82.9577L327.421 82.9662L328.835 81.552ZM320.643 67.344L318.738 67.9515L318.741 67.964L318.746 67.9765L320.643 67.344ZM319.827 45.712C319.827 29.1035 323.509 17.9879 330.317 11.7282L327.609 8.7838C319.569 16.1775 315.827 28.6991 315.827 45.712H319.827ZM330.317 11.7282C337.269 5.33575 347.054 2.016 359.939 2.016V-1.984C346.371 -1.984 335.505 1.52292 327.609 8.7838L330.317 11.7282ZM359.939 2.016C371.843 2.016 380.826 4.24332 387.113 8.46085L389.341 5.13914C382.145 0.311339 372.269 -1.984 359.939 -1.984V2.016ZM387.122 8.46729C393.332 12.5809 397.172 19.4385 398.402 29.4441L402.372 28.9559C401.042 18.1402 396.776 10.0645 389.332 5.1327L387.122 8.46729ZM400.387 27.2H381.955V31.2H400.387V27.2ZM383.932 28.9004C383.022 22.8883 380.535 18.3571 376.176 15.823L374.166 19.281C377.146 21.0136 379.182 24.2477 379.978 29.4996L383.932 28.9004ZM376.176 15.823C372.081 13.4423 366.606 12.352 359.939 12.352V16.352C366.243 16.352 370.922 17.3951 374.166 19.281L376.176 15.823ZM359.939 12.352C352.27 12.352 345.955 14.2736 341.227 18.3396L343.835 21.3724C347.64 18.0997 352.931 16.352 359.939 16.352V12.352ZM341.227 18.3396C336.287 22.5881 334.131 29.9962 334.131 39.824H338.131C338.131 30.3665 340.242 24.4626 343.835 21.3724L341.227 18.3396ZM334.131 39.824V51.856H338.131V39.824H334.131ZM334.131 51.856C334.131 61.4509 336.254 68.7644 341.05 73.1691L343.756 70.2229C340.189 66.9476 338.131 61.0345 338.131 51.856H334.131ZM341.082 73.1974C345.814 77.3614 352.181 79.328 359.939 79.328V75.328C352.849 75.328 347.526 73.5399 343.724 70.1946L341.082 73.1974ZM359.939 79.328C368.236 79.328 374.718 77.6824 378.927 73.9627L376.279 70.9653C373.149 73.7309 367.856 75.328 359.939 75.328V79.328ZM378.91 73.9776C383.216 70.2595 385.386 64.6203 385.745 57.4599L381.75 57.2601C381.425 63.753 379.5 68.1832 376.296 70.9504L378.91 73.9776ZM383.747 55.36H361.091V59.36H383.747V55.36ZM363.091 57.36V44.56H359.091V57.36H363.091ZM361.091 46.56H401.667V42.56H361.091V46.56ZM399.667 44.56V53.904H403.667V44.56H399.667ZM399.667 53.904C399.667 66.0643 396.205 74.8664 389.593 80.6913L392.237 83.6927C399.961 76.8883 403.667 66.8317 403.667 53.904H399.667ZM389.593 80.6913C382.916 86.5734 373.134 89.664 359.939 89.664V93.664C373.71 93.664 384.578 90.44 392.237 83.6927L389.593 80.6913ZM359.939 89.664C353.434 89.664 347.653 88.9131 342.577 87.4393L341.461 91.2807C346.966 92.8789 353.132 93.664 359.939 93.664V89.664ZM342.614 87.4505C337.694 85.918 333.587 83.4756 330.249 80.1378L327.421 82.9662C331.251 86.7964 335.934 89.5593 341.424 91.2695L342.614 87.4505ZM330.266 80.1549C327.023 76.8327 324.43 72.3798 322.54 66.7115L318.746 67.9765C320.782 74.0842 323.65 79.1033 327.404 82.9491L330.266 80.1549ZM322.548 66.7365C320.753 61.1037 319.827 54.1116 319.827 45.712H315.827C315.827 54.379 316.779 61.8083 318.738 67.9515L322.548 66.7365ZM430.241 1.67999V-0.320007H428.241V1.67999H430.241ZM448.417 1.67999H450.417V-0.320007H448.417V1.67999ZM448.417 37.264H446.417V39.264H448.417V37.264ZM488.737 37.264V39.264H490.737V37.264H488.737ZM488.737 1.67999V-0.320007H486.737V1.67999H488.737ZM506.913 1.67999H508.913V-0.320007H506.913V1.67999ZM506.913 90V92H508.913V90H506.913ZM488.737 90H486.737V92H488.737V90ZM488.737 52.368H490.737V50.368H488.737V52.368ZM448.417 52.368V50.368H446.417V52.368H448.417ZM448.417 90V92H450.417V90H448.417ZM430.241 90H428.241V92H430.241V90ZM430.241 3.67999H448.417V-0.320007H430.241V3.67999ZM446.417 1.67999V37.264H450.417V1.67999H446.417ZM448.417 39.264H488.737V35.264H448.417V39.264ZM490.737 37.264V1.67999H486.737V37.264H490.737ZM488.737 3.67999H506.913V-0.320007H488.737V3.67999ZM504.913 1.67999V90H508.913V1.67999H504.913ZM506.913 88H488.737V92H506.913V88ZM490.737 90V52.368H486.737V90H490.737ZM488.737 50.368H448.417V54.368H488.737V50.368ZM446.417 52.368V90H450.417V52.368H446.417ZM448.417 88H430.241V92H448.417V88ZM432.241 90V1.67999H428.241V90H432.241ZM561.206 16.784H563.206V14.784H561.206V16.784ZM532.022 16.784H530.022V18.784H532.022V16.784ZM532.022 1.67999V-0.320007H530.022V1.67999H532.022ZM608.566 1.67999H610.566V-0.320007H608.566V1.67999ZM608.566 16.784V18.784H610.566V16.784H608.566ZM579.254 16.784V14.784H577.254V16.784H579.254ZM579.254 90V92H581.254V90H579.254ZM561.206 90H559.206V92H561.206V90ZM561.206 14.784H532.022V18.784H561.206V14.784ZM534.022 16.784V1.67999H530.022V16.784H534.022ZM532.022 3.67999H608.566V-0.320007H532.022V3.67999ZM606.566 1.67999V16.784H610.566V1.67999H606.566ZM608.566 14.784H579.254V18.784H608.566V14.784ZM577.254 16.784V90H581.254V16.784H577.254ZM579.254 88H561.206V92H579.254V88ZM563.206 90V16.784H559.206V90H563.206ZM627.668 64.528V62.528H625.544L625.672 64.6485L627.668 64.528ZM646.1 64.528L648.087 64.3036L647.887 62.528H646.1V64.528ZM651.988 75.152L651.04 76.9129L651.066 76.9273L651.094 76.9409L651.988 75.152ZM681.172 74.896L680.189 73.154L680.18 73.1595L680.17 73.1651L681.172 74.896ZM677.204 54.8L676.806 56.7601L676.812 56.7612L677.204 54.8ZM657.62 51.6L657.334 53.5794L657.347 53.5813L657.36 53.5831L657.62 51.6ZM638.036 45.456L637.091 47.2186L637.106 47.2267L637.121 47.2346L638.036 45.456ZM638.676 6.41599L639.78 8.08356L639.785 8.08009L638.676 6.41599ZM691.796 6.032L690.734 7.72672L690.747 7.73496L690.76 7.743L691.796 6.032ZM702.164 25.616V27.616H704.26L704.162 25.5226L702.164 25.616ZM683.732 25.616L681.737 25.7637L681.875 27.616H683.732V25.616ZM678.228 16.4L677.334 18.1888L677.362 18.2028L677.39 18.2159L678.228 16.4ZM651.476 16.656L652.427 18.4154L652.445 18.4056L652.463 18.3954L651.476 16.656ZM655.7 36.112L655.308 38.0732L655.321 38.0759L655.335 38.0784L655.7 36.112ZM675.284 39.44L674.975 41.4159L674.986 41.4177L674.998 41.4194L675.284 39.44ZM694.868 45.584L693.953 47.3626L693.953 47.3626L694.868 45.584ZM694.356 85.264L693.236 83.6068L693.226 83.6139L694.356 85.264ZM638.292 85.52L637.224 87.211L637.224 87.211L638.292 85.52ZM627.668 66.528H646.1V62.528H627.668V66.528ZM644.113 64.7524C644.751 70.4077 646.92 74.6945 651.04 76.9129L652.936 73.3911C650.4 72.0255 648.644 69.2297 648.087 64.3036L644.113 64.7524ZM651.094 76.9409C654.912 78.8502 660.181 79.712 666.708 79.712V75.712C660.435 75.712 655.89 74.8672 652.882 73.3631L651.094 76.9409ZM666.708 79.712C673.241 79.712 678.481 78.7648 682.174 76.6269L680.17 73.1651C677.377 74.7819 672.975 75.712 666.708 75.712V79.712ZM682.155 76.638C686.251 74.3273 688.164 70.3217 688.164 65.168H684.164C684.164 69.2303 682.749 71.71 680.189 73.154L682.155 76.638ZM688.164 65.168C688.164 61.954 687.318 59.1561 685.437 56.9803C683.569 54.8189 680.874 53.4943 677.596 52.8388L676.812 56.7612C679.508 57.3003 681.292 58.301 682.411 59.5957C683.517 60.8759 684.164 62.6647 684.164 65.168H688.164ZM677.602 52.8399C671.66 51.6344 665.085 50.5605 657.88 49.6169L657.36 53.5831C664.491 54.5168 670.972 55.5763 676.806 56.7601L677.602 52.8399ZM657.906 49.6206C651.028 48.6262 644.715 46.6417 638.951 43.6774L637.121 47.2346C643.304 50.4143 650.046 52.5258 657.334 53.5794L657.906 49.6206ZM638.981 43.6934C634 41.0224 631.204 35.5942 631.204 26.512H627.204C627.204 36.3738 630.296 43.5749 637.091 47.2186L638.981 43.6934ZM631.204 26.512C631.204 17.8003 634.151 11.8111 639.78 8.08355L637.572 4.74843C630.572 9.3836 627.204 16.7917 627.204 26.512H631.204ZM639.785 8.08009C645.735 4.11358 654.168 2.016 665.3 2.016V-1.984C653.733 -1.984 644.417 0.185084 637.567 4.75189L639.785 8.08009ZM665.3 2.016C676.361 2.016 684.772 3.99071 690.734 7.72672L692.858 4.33727C686.02 0.0519518 676.767 -1.984 665.3 -1.984V2.016ZM690.76 7.743C696.553 11.249 699.763 17.0876 700.166 25.7094L704.162 25.5226C703.711 15.8831 700.01 8.66563 692.832 4.321L690.76 7.743ZM702.164 23.616H683.732V27.616H702.164V23.616ZM685.727 25.4683C685.348 20.3565 683.233 16.5075 679.066 14.5841L677.39 18.2159C679.879 19.3645 681.433 21.6595 681.737 25.7637L685.727 25.4683ZM679.122 14.6111C675.501 12.8002 670.849 11.968 665.3 11.968V15.968C670.503 15.968 674.47 16.7571 677.334 18.1888L679.122 14.6111ZM665.3 11.968C659.1 11.968 654.086 12.8752 650.489 14.9166L652.463 18.3954C655.181 16.8528 659.383 15.968 665.3 15.968V11.968ZM650.525 14.8966C646.519 17.0618 644.74 21.0904 644.74 26.256H648.74C648.74 22.0349 650.118 19.6636 652.427 18.4154L650.525 14.8966ZM644.74 26.256C644.74 29.3312 645.605 32.0123 647.5 34.0973C649.371 36.1548 652.055 37.4226 655.308 38.0732L656.092 34.1508C653.372 33.6067 651.576 32.6345 650.46 31.4067C649.369 30.2063 648.74 28.5568 648.74 26.256H644.74ZM655.335 38.0784C661.33 39.1917 667.876 40.3042 674.975 41.4159L675.593 37.4641C668.526 36.3572 662.017 35.251 656.065 34.1456L655.335 38.0784ZM674.998 41.4194C681.876 42.4138 688.189 44.3983 693.953 47.3626L695.783 43.8054C689.6 40.6257 682.858 38.5142 675.57 37.4606L674.998 41.4194ZM693.953 47.3626C699.01 49.9631 701.828 55.2613 701.828 64.144H705.828C705.828 54.424 702.673 47.3489 695.783 43.8054L693.953 47.3626ZM701.828 64.144C701.828 73.5069 698.844 79.8177 693.236 83.6068L695.476 86.9212C702.497 82.177 705.828 74.4078 705.828 64.144H701.828ZM693.226 83.6139C687.475 87.5526 678.773 89.664 666.836 89.664V93.664C679.133 93.664 688.778 91.5087 695.486 86.9141L693.226 83.6139ZM666.836 89.664C654.454 89.664 645.382 87.6324 639.36 83.829L637.224 87.211C644.173 91.5996 654.13 93.664 666.836 93.664V89.664ZM639.36 83.829C633.574 80.1745 630.235 73.8716 629.664 64.4075L625.672 64.6485C626.295 74.9817 630.04 82.6735 637.224 87.211L639.36 83.829Z" fill="#00666C" fill-opacity="0.2"/>
<path d="M19.28 74L9.16 54.44V74H2.68V46.4H12.28L22.36 65.92V46.4H28.84V74H19.28ZM32.61 63.8C32.61 61.7467 32.85 60.0267 33.33 58.64C33.8367 57.2533 34.5567 56.1467 35.49 55.32C36.45 54.4933 37.65 53.9067 39.09 53.56C40.53 53.2133 42.1833 53.04 44.05 53.04C45.9433 53.04 47.61 53.2133 49.05 53.56C50.49 53.9067 51.69 54.4933 52.65 55.32C53.61 56.1467 54.33 57.2533 54.81 58.64C55.29 60.0267 55.53 61.7467 55.53 63.8C55.53 65.88 55.29 67.6133 54.81 69C54.33 70.3867 53.61 71.4933 52.65 72.32C51.69 73.1467 50.49 73.72 49.05 74.04C47.61 74.3867 45.9433 74.56 44.05 74.56C42.1833 74.56 40.53 74.3867 39.09 74.04C37.65 73.72 36.45 73.1467 35.49 72.32C34.5567 71.4933 33.8367 70.3867 33.33 69C32.85 67.6133 32.61 65.88 32.61 63.8ZM48.65 65.52V62.12C48.65 60.44 48.2633 59.2933 47.49 58.68C46.7167 58.04 45.57 57.72 44.05 57.72C42.5567 57.72 41.4233 58.04 40.65 58.68C39.8767 59.2933 39.49 60.44 39.49 62.12V65.52C39.49 67.1733 39.8767 68.32 40.65 68.96C41.4233 69.5733 42.5567 69.88 44.05 69.88C45.57 69.88 46.7167 69.5733 47.49 68.96C48.2633 68.32 48.65 67.1733 48.65 65.52ZM63.9263 74L56.5263 53.6H63.2063L68.2863 68.12L73.2463 53.6H79.3263L72.0463 74H63.9263ZM80.0272 68.44C80.0272 66.3333 80.7339 64.7467 82.1472 63.68C83.5605 62.5867 85.8005 61.9467 88.8672 61.76L94.7472 61.48V60.72C94.7472 59.52 94.4539 58.6933 93.8672 58.24C93.2805 57.76 92.4005 57.52 91.2272 57.52C90.1339 57.52 89.3205 57.7067 88.7872 58.08C88.2539 58.4267 87.9072 58.9733 87.7472 59.72H80.7472C81.0139 57.5333 82.0005 55.88 83.7072 54.76C85.4405 53.6133 87.9739 53.04 91.3072 53.04C94.6939 53.04 97.2272 53.6667 98.9072 54.92C100.614 56.1467 101.467 58.08 101.467 60.72V74H94.9472V71.2C94.2805 72.2667 93.3205 73.0933 92.0672 73.68C90.8139 74.2667 89.2139 74.56 87.2672 74.56C84.8939 74.56 83.0939 74.0133 81.8672 72.92C80.6405 71.8 80.0272 70.3067 80.0272 68.44ZM86.9072 68C86.9072 68.72 87.1472 69.2533 87.6272 69.6C88.1339 69.9467 88.8805 70.12 89.8672 70.12C91.3605 70.12 92.5472 69.7867 93.4272 69.12C94.3072 68.4267 94.7472 67.4 94.7472 66.04V65.16L90.0272 65.4C88.9339 65.48 88.1339 65.68 87.6272 66C87.1472 66.32 86.9072 66.8267 86.9072 67.52V68ZM104.753 67.52H111.633C111.686 68.5333 112.059 69.24 112.753 69.64C113.446 70.0133 114.393 70.2 115.593 70.2C116.846 70.2 117.779 70.04 118.393 69.72C119.006 69.4 119.313 68.9067 119.313 68.24C119.313 67.12 118.566 66.48 117.073 66.32C115.606 66.16 113.993 65.9733 112.233 65.76C110.473 65.5467 108.846 65.04 107.353 64.24C105.886 63.44 105.153 61.8533 105.153 59.48C105.153 57.24 106.033 55.6133 107.793 54.6C109.579 53.56 112.006 53.04 115.073 53.04C118.166 53.04 120.633 53.56 122.473 54.6C124.339 55.6133 125.326 57.3067 125.433 59.68H118.553C118.473 58.7733 118.126 58.1733 117.513 57.88C116.899 57.56 116.086 57.4 115.073 57.4C114.033 57.4 113.233 57.5467 112.673 57.84C112.113 58.1067 111.833 58.56 111.833 59.2C111.833 60.24 112.566 60.84 114.033 61C115.526 61.1333 117.139 61.32 118.873 61.56C120.633 61.7733 122.246 62.2933 123.713 63.12C125.206 63.92 125.953 65.52 125.953 67.92C125.953 70.24 125.046 71.9333 123.233 73C121.419 74.04 118.873 74.56 115.593 74.56C112.233 74.56 109.619 74.0133 107.753 72.92C105.886 71.8 104.886 70 104.753 67.52ZM136.706 67.52H143.586C143.639 68.5333 144.013 69.24 144.706 69.64C145.399 70.0133 146.346 70.2 147.546 70.2C148.799 70.2 149.733 70.04 150.346 69.72C150.959 69.4 151.266 68.9067 151.266 68.24C151.266 67.12 150.519 66.48 149.026 66.32C147.559 66.16 145.946 65.9733 144.186 65.76C142.426 65.5467 140.799 65.04 139.306 64.24C137.839 63.44 137.106 61.8533 137.106 59.48C137.106 57.24 137.986 55.6133 139.746 54.6C141.533 53.56 143.959 53.04 147.026 53.04C150.119 53.04 152.586 53.56 154.426 54.6C156.293 55.6133 157.279 57.3067 157.386 59.68H150.506C150.426 58.7733 150.079 58.1733 149.466 57.88C148.853 57.56 148.039 57.4 147.026 57.4C145.986 57.4 145.186 57.5467 144.626 57.84C144.066 58.1067 143.786 58.56 143.786 59.2C143.786 60.24 144.519 60.84 145.986 61C147.479 61.1333 149.093 61.32 150.826 61.56C152.586 61.7733 154.199 62.2933 155.666 63.12C157.159 63.92 157.906 65.52 157.906 67.92C157.906 70.24 156.999 71.9333 155.186 73C153.373 74.04 150.826 74.56 147.546 74.56C144.186 74.56 141.573 74.0133 139.706 72.92C137.839 71.8 136.839 70 136.706 67.52ZM160.383 63.8C160.383 61.7467 160.623 60.0267 161.103 58.64C161.61 57.2533 162.33 56.1467 163.263 55.32C164.223 54.4933 165.423 53.9067 166.863 53.56C168.303 53.2133 169.957 53.04 171.823 53.04C173.717 53.04 175.383 53.2133 176.823 53.56C178.263 53.9067 179.463 54.4933 180.423 55.32C181.383 56.1467 182.103 57.2533 182.583 58.64C183.063 60.0267 183.303 61.7467 183.303 63.8C183.303 65.88 183.063 67.6133 182.583 69C182.103 70.3867 181.383 71.4933 180.423 72.32C179.463 73.1467 178.263 73.72 176.823 74.04C175.383 74.3867 173.717 74.56 171.823 74.56C169.957 74.56 168.303 74.3867 166.863 74.04C165.423 73.72 164.223 73.1467 163.263 72.32C162.33 71.4933 161.61 70.3867 161.103 69C160.623 67.6133 160.383 65.88 160.383 63.8ZM176.423 65.52V62.12C176.423 60.44 176.037 59.2933 175.263 58.68C174.49 58.04 173.343 57.72 171.823 57.72C170.33 57.72 169.197 58.04 168.423 58.68C167.65 59.2933 167.263 60.44 167.263 62.12V65.52C167.263 67.1733 167.65 68.32 168.423 68.96C169.197 69.5733 170.33 69.88 171.823 69.88C173.343 69.88 174.49 69.5733 175.263 68.96C176.037 68.32 176.423 67.1733 176.423 65.52ZM187.008 44.8H193.728V74H187.008V44.8ZM198.254 66.76V53.6H205.014V66.56C205.014 67.84 205.32 68.7067 205.934 69.16C206.574 69.6133 207.534 69.84 208.814 69.84C209.987 69.84 210.947 69.6 211.694 69.12C212.467 68.64 212.854 67.7867 212.854 66.56V53.6H219.574V74H213.014V70.92C212.427 72.1733 211.494 73.0933 210.214 73.68C208.934 74.2667 207.494 74.56 205.894 74.56C203.467 74.56 201.587 73.9733 200.254 72.8C198.92 71.6267 198.254 69.6133 198.254 66.76ZM223.353 63.8C223.353 59.8533 224.22 57.08 225.953 55.48C227.713 53.8533 230.406 53.04 234.033 53.04C237.1 53.04 239.54 53.5733 241.353 54.64C243.166 55.7067 244.193 57.52 244.433 60.08H237.553C237.446 59.3333 237.126 58.76 236.593 58.36C236.06 57.9333 235.206 57.72 234.033 57.72C232.726 57.72 231.766 58.0133 231.153 58.6C230.54 59.1867 230.233 60.2 230.233 61.64V65.8C230.233 67.32 230.553 68.3867 231.193 69C231.86 69.5867 232.806 69.88 234.033 69.88C235.26 69.88 236.14 69.6667 236.673 69.24C237.206 68.7867 237.526 68.1867 237.633 67.44H244.513C244.22 69.7867 243.22 71.56 241.513 72.76C239.833 73.96 237.34 74.56 234.033 74.56C232.273 74.56 230.713 74.3867 229.353 74.04C228.02 73.6933 226.913 73.1067 226.033 72.28C225.153 71.4533 224.486 70.3467 224.033 68.96C223.58 67.5733 223.353 65.8533 223.353 63.8ZM230.913 82.96V79.6C232.46 79.6 233.406 79.52 233.753 79.36C234.126 79.2267 234.313 78.9467 234.313 78.52C234.313 78.0933 234.113 77.8133 233.713 77.68C233.34 77.5733 232.486 77.52 231.153 77.52V74H235.593V75.36C236.82 75.4667 237.86 75.7333 238.713 76.16C239.566 76.6133 239.993 77.56 239.993 79C239.993 80.28 239.486 81.2533 238.473 81.92C237.486 82.6133 236.113 82.96 234.353 82.96H230.913ZM246.829 63.8C246.829 61.7467 247.069 60.0267 247.549 58.64C248.055 57.2533 248.775 56.1467 249.709 55.32C250.669 54.4933 251.869 53.9067 253.309 53.56C254.749 53.2133 256.402 53.04 258.269 53.04C260.162 53.04 261.829 53.2133 263.269 53.56C264.709 53.9067 265.909 54.4933 266.869 55.32C267.829 56.1467 268.549 57.2533 269.029 58.64C269.509 60.0267 269.749 61.7467 269.749 63.8C269.749 65.88 269.509 67.6133 269.029 69C268.549 70.3867 267.829 71.4933 266.869 72.32C265.909 73.1467 264.709 73.72 263.269 74.04C261.829 74.3867 260.162 74.56 258.269 74.56C256.402 74.56 254.749 74.3867 253.309 74.04C251.869 73.72 250.669 73.1467 249.709 72.32C248.775 71.4933 248.055 70.3867 247.549 69C247.069 67.6133 246.829 65.88 246.829 63.8ZM262.869 65.52V62.12C262.869 60.44 262.482 59.2933 261.709 58.68C260.935 58.04 259.789 57.72 258.269 57.72C256.775 57.72 255.642 58.04 254.869 58.68C254.095 59.2933 253.709 60.44 253.709 62.12V65.52C253.709 67.1733 254.095 68.32 254.869 68.96C255.642 69.5733 256.775 69.88 258.269 69.88C259.789 69.88 260.935 69.5733 261.709 68.96C262.482 68.32 262.869 67.1733 262.869 65.52ZM254.909 43.2C255.762 43.2 256.482 43.3467 257.069 43.64C257.682 43.9333 258.202 44.2533 258.629 44.6C259.055 44.92 259.429 45.2267 259.749 45.52C260.095 45.8133 260.455 45.96 260.829 45.96C261.255 45.96 261.575 45.7333 261.789 45.28C262.002 44.8267 262.109 44.1867 262.109 43.36H266.349C266.349 45.7067 265.962 47.5067 265.189 48.76C264.415 49.9867 263.255 50.6 261.709 50.6C260.829 50.6 260.082 50.4533 259.469 50.16C258.882 49.8667 258.375 49.5467 257.949 49.2C257.522 48.8533 257.135 48.5333 256.789 48.24C256.469 47.9467 256.135 47.8 255.789 47.8C255.362 47.8 255.029 48.04 254.789 48.52C254.575 48.9733 254.469 49.6133 254.469 50.44H250.229C250.229 48.0933 250.615 46.3067 251.389 45.08C252.162 43.8267 253.335 43.2 254.909 43.2ZM272.414 63.88C272.414 60.0133 273.334 57.24 275.174 55.56C277.04 53.88 279.734 53.04 283.254 53.04C286.8 53.04 289.507 53.84 291.374 55.44C293.24 57.0133 294.174 59.6267 294.174 63.28V64.56H279.054V65.52C279.054 67.2 279.427 68.3867 280.174 69.08C280.92 69.7467 281.947 70.08 283.254 70.08C284.507 70.08 285.467 69.8533 286.134 69.4C286.827 68.9467 287.24 68.2533 287.374 67.32H294.094C293.747 69.7733 292.64 71.6 290.774 72.8C288.934 73.9733 286.427 74.56 283.254 74.56C279.734 74.56 277.04 73.7467 275.174 72.12C273.334 70.4667 272.414 67.72 272.414 63.88ZM283.254 57.52C281.92 57.52 280.88 57.8133 280.134 58.4C279.414 58.96 279.054 59.8533 279.054 61.08H287.494C287.467 59.8267 287.094 58.92 286.374 58.36C285.654 57.8 284.614 57.52 283.254 57.52ZM296.667 67.52H303.547C303.6 68.5333 303.974 69.24 304.667 69.64C305.36 70.0133 306.307 70.2 307.507 70.2C308.76 70.2 309.694 70.04 310.307 69.72C310.92 69.4 311.227 68.9067 311.227 68.24C311.227 67.12 310.48 66.48 308.987 66.32C307.52 66.16 305.907 65.9733 304.147 65.76C302.387 65.5467 300.76 65.04 299.267 64.24C297.8 63.44 297.067 61.8533 297.067 59.48C297.067 57.24 297.947 55.6133 299.707 54.6C301.494 53.56 303.92 53.04 306.987 53.04C310.08 53.04 312.547 53.56 314.387 54.6C316.254 55.6133 317.24 57.3067 317.347 59.68H310.467C310.387 58.7733 310.04 58.1733 309.427 57.88C308.814 57.56 308 57.4 306.987 57.4C305.947 57.4 305.147 57.5467 304.587 57.84C304.027 58.1067 303.747 58.56 303.747 59.2C303.747 60.24 304.48 60.84 305.947 61C307.44 61.1333 309.054 61.32 310.787 61.56C312.547 61.7733 314.16 62.2933 315.627 63.12C317.12 63.92 317.867 65.52 317.867 67.92C317.867 70.24 316.96 71.9333 315.147 73C313.334 74.04 310.787 74.56 307.507 74.56C304.147 74.56 301.534 74.0133 299.667 72.92C297.8 71.8 296.8 70 296.667 67.52ZM328.9 63.92C328.9 60.0533 329.713 57.28 331.34 55.6C332.967 53.8933 335.22 53.04 338.1 53.04C339.62 53.04 340.953 53.28 342.1 53.76C343.247 54.2133 344.18 54.9333 344.9 55.92V44.8H351.66V74H345.1V71.4C344.38 72.4933 343.433 73.2933 342.26 73.8C341.087 74.3067 339.7 74.56 338.1 74.56C335.247 74.56 332.993 73.7333 331.34 72.08C329.713 70.4 328.9 67.68 328.9 63.92ZM344.9 65.72V61.92C344.9 60.4533 344.527 59.3867 343.78 58.72C343.033 58.0533 341.887 57.72 340.34 57.72C338.82 57.72 337.673 58.0533 336.9 58.72C336.153 59.3867 335.78 60.4667 335.78 61.96V65.72C335.78 67.2133 336.167 68.28 336.94 68.92C337.713 69.56 338.86 69.88 340.38 69.88C341.9 69.88 343.033 69.56 343.78 68.92C344.527 68.28 344.9 67.2133 344.9 65.72ZM355.343 63.88C355.343 60.0133 356.263 57.24 358.103 55.56C359.97 53.88 362.663 53.04 366.183 53.04C369.73 53.04 372.437 53.84 374.303 55.44C376.17 57.0133 377.103 59.6267 377.103 63.28V64.56H361.983V65.52C361.983 67.2 362.357 68.3867 363.103 69.08C363.85 69.7467 364.877 70.08 366.183 70.08C367.437 70.08 368.397 69.8533 369.063 69.4C369.757 68.9467 370.17 68.2533 370.303 67.32H377.023C376.677 69.7733 375.57 71.6 373.703 72.8C371.863 73.9733 369.357 74.56 366.183 74.56C362.663 74.56 359.97 73.7467 358.103 72.12C356.263 70.4667 355.343 67.72 355.343 63.88ZM366.183 57.52C364.85 57.52 363.81 57.8133 363.063 58.4C362.343 58.96 361.983 59.8533 361.983 61.08H370.423C370.397 59.8267 370.023 58.92 369.303 58.36C368.583 57.8 367.543 57.52 366.183 57.52ZM389.352 53.6H395.912V56.28C396.659 55.16 397.632 54.3467 398.832 53.84C400.059 53.3067 401.526 53.04 403.232 53.04C406.006 53.04 408.179 53.8933 409.752 55.6C411.326 57.28 412.112 60.04 412.112 63.88C412.112 67.6133 411.326 70.3333 409.752 72.04C408.206 73.72 406.032 74.56 403.232 74.56C401.606 74.56 400.192 74.32 398.992 73.84C397.792 73.36 396.819 72.6133 396.072 71.6V82H389.352V53.6ZM405.232 65.72V61.92C405.232 60.4267 404.846 59.36 404.072 58.72C403.326 58.0533 402.192 57.72 400.672 57.72C399.099 57.72 397.939 58.0533 397.192 58.72C396.446 59.36 396.072 60.4267 396.072 61.92V65.72C396.072 67.2133 396.446 68.28 397.192 68.92C397.966 69.56 399.112 69.88 400.632 69.88C402.152 69.88 403.299 69.56 404.072 68.92C404.846 68.28 405.232 67.2133 405.232 65.72ZM414.876 63.8C414.876 61.7467 415.116 60.0267 415.596 58.64C416.102 57.2533 416.822 56.1467 417.756 55.32C418.716 54.4933 419.916 53.9067 421.356 53.56C422.796 53.2133 424.449 53.04 426.316 53.04C428.209 53.04 429.876 53.2133 431.316 53.56C432.756 53.9067 433.956 54.4933 434.916 55.32C435.876 56.1467 436.596 57.2533 437.076 58.64C437.556 60.0267 437.796 61.7467 437.796 63.8C437.796 65.88 437.556 67.6133 437.076 69C436.596 70.3867 435.876 71.4933 434.916 72.32C433.956 73.1467 432.756 73.72 431.316 74.04C429.876 74.3867 428.209 74.56 426.316 74.56C424.449 74.56 422.796 74.3867 421.356 74.04C419.916 73.72 418.716 73.1467 417.756 72.32C416.822 71.4933 416.102 70.3867 415.596 69C415.116 67.6133 414.876 65.88 414.876 63.8ZM430.916 65.52V62.12C430.916 60.44 430.529 59.2933 429.756 58.68C428.982 58.04 427.836 57.72 426.316 57.72C424.822 57.72 423.689 58.04 422.916 58.68C422.142 59.2933 421.756 60.44 421.756 62.12V65.52C421.756 67.1733 422.142 68.32 422.916 68.96C423.689 69.5733 424.822 69.88 426.316 69.88C427.836 69.88 428.982 69.5733 429.756 68.96C430.529 68.32 430.916 67.1733 430.916 65.52ZM456.061 74V61.04C456.061 59.7867 455.741 58.9333 455.101 58.48C454.461 58.0267 453.514 57.8 452.261 57.8C451.061 57.8 450.087 58.04 449.341 58.52C448.594 59 448.221 59.84 448.221 61.04V74H441.501V53.6H448.061V56.68C448.647 55.4533 449.581 54.5467 450.861 53.96C452.141 53.3467 453.581 53.04 455.181 53.04C457.661 53.04 459.554 53.6667 460.861 54.92C462.167 56.1733 462.821 58.1467 462.821 60.84V74H456.061ZM468.201 66.88V58.84H465.681V53.6H468.201V47.52H474.961V53.6H480.281V58.84H474.961V66.04C474.961 67 475.161 67.7067 475.561 68.16C475.961 68.5867 476.681 68.8 477.721 68.8H480.281V74H475.241C472.628 74 470.801 73.44 469.761 72.32C468.721 71.1733 468.201 69.36 468.201 66.88ZM482.527 68.44C482.527 66.3333 483.234 64.7467 484.647 63.68C486.061 62.5867 488.301 61.9467 491.367 61.76L497.247 61.48V60.72C497.247 59.52 496.954 58.6933 496.367 58.24C495.781 57.76 494.901 57.52 493.727 57.52C492.634 57.52 491.821 57.7067 491.287 58.08C490.754 58.4267 490.407 58.9733 490.247 59.72H483.247C483.514 57.5333 484.501 55.88 486.207 54.76C487.941 53.6133 490.474 53.04 493.807 53.04C497.194 53.04 499.727 53.6667 501.407 54.92C503.114 56.1467 503.967 58.08 503.967 60.72V74H497.447V71.2C496.781 72.2667 495.821 73.0933 494.567 73.68C493.314 74.2667 491.714 74.56 489.767 74.56C487.394 74.56 485.594 74.0133 484.367 72.92C483.141 71.8 482.527 70.3067 482.527 68.44ZM489.407 68C489.407 68.72 489.647 69.2533 490.127 69.6C490.634 69.9467 491.381 70.12 492.367 70.12C493.861 70.12 495.047 69.7867 495.927 69.12C496.807 68.4267 497.247 67.4 497.247 66.04V65.16L492.527 65.4C491.434 65.48 490.634 65.68 490.127 66C489.647 66.32 489.407 66.8267 489.407 67.52V68ZM515.808 68.44C515.808 66.3333 516.515 64.7467 517.928 63.68C519.342 62.5867 521.582 61.9467 524.648 61.76L530.528 61.48V60.72C530.528 59.52 530.235 58.6933 529.648 58.24C529.062 57.76 528.182 57.52 527.008 57.52C525.915 57.52 525.102 57.7067 524.568 58.08C524.035 58.4267 523.688 58.9733 523.528 59.72H516.528C516.795 57.5333 517.782 55.88 519.488 54.76C521.222 53.6133 523.755 53.04 527.088 53.04C530.475 53.04 533.008 53.6667 534.688 54.92C536.395 56.1467 537.248 58.08 537.248 60.72V74H530.728V71.2C530.062 72.2667 529.102 73.0933 527.848 73.68C526.595 74.2667 524.995 74.56 523.048 74.56C520.675 74.56 518.875 74.0133 517.648 72.92C516.422 71.8 515.808 70.3067 515.808 68.44ZM522.688 68C522.688 68.72 522.928 69.2533 523.408 69.6C523.915 69.9467 524.662 70.12 525.648 70.12C527.142 70.12 528.328 69.7867 529.208 69.12C530.088 68.4267 530.528 67.4 530.528 66.04V65.16L525.808 65.4C524.715 65.48 523.915 65.68 523.408 66C522.928 66.32 522.688 66.8267 522.688 67.52V68ZM550.29 53.6H556.85V56.28C557.596 55.16 558.57 54.3467 559.77 53.84C560.996 53.3067 562.463 53.04 564.17 53.04C566.943 53.04 569.116 53.8933 570.69 55.6C572.263 57.28 573.05 60.04 573.05 63.88C573.05 67.6133 572.263 70.3333 570.69 72.04C569.143 73.72 566.97 74.56 564.17 74.56C562.543 74.56 561.13 74.32 559.93 73.84C558.73 73.36 557.756 72.6133 557.01 71.6V82H550.29V53.6ZM566.17 65.72V61.92C566.17 60.4267 565.783 59.36 565.01 58.72C564.263 58.0533 563.13 57.72 561.61 57.72C560.036 57.72 558.876 58.0533 558.13 58.72C557.383 59.36 557.01 60.4267 557.01 61.92V65.72C557.01 67.2133 557.383 68.28 558.13 68.92C558.903 69.56 560.05 69.88 561.57 69.88C563.09 69.88 564.236 69.56 565.01 68.92C565.783 68.28 566.17 67.2133 566.17 65.72ZM575.813 63.8C575.813 61.7467 576.053 60.0267 576.533 58.64C577.04 57.2533 577.76 56.1467 578.693 55.32C579.653 54.4933 580.853 53.9067 582.293 53.56C583.733 53.2133 585.386 53.04 587.253 53.04C589.146 53.04 590.813 53.2133 592.253 53.56C593.693 53.9067 594.893 54.4933 595.853 55.32C596.813 56.1467 597.533 57.2533 598.013 58.64C598.493 60.0267 598.733 61.7467 598.733 63.8C598.733 65.88 598.493 67.6133 598.013 69C597.533 70.3867 596.813 71.4933 595.853 72.32C594.893 73.1467 593.693 73.72 592.253 74.04C590.813 74.3867 589.146 74.56 587.253 74.56C585.386 74.56 583.733 74.3867 582.293 74.04C580.853 73.72 579.653 73.1467 578.693 72.32C577.76 71.4933 577.04 70.3867 576.533 69C576.053 67.6133 575.813 65.88 575.813 63.8ZM591.853 65.52V62.12C591.853 60.44 591.466 59.2933 590.693 58.68C589.92 58.04 588.773 57.72 587.253 57.72C585.76 57.72 584.626 58.04 583.853 58.68C583.08 59.2933 582.693 60.44 582.693 62.12V65.52C582.693 67.1733 583.08 68.32 583.853 68.96C584.626 69.5733 585.76 69.88 587.253 69.88C588.773 69.88 589.92 69.5733 590.693 68.96C591.466 68.32 591.853 67.1733 591.853 65.52ZM616.998 74V61.04C616.998 59.7867 616.678 58.9333 616.038 58.48C615.398 58.0267 614.451 57.8 613.198 57.8C611.998 57.8 611.025 58.04 610.278 58.52C609.531 59 609.158 59.84 609.158 61.04V74H602.438V53.6H608.998V56.68C609.585 55.4533 610.518 54.5467 611.798 53.96C613.078 53.3467 614.518 53.04 616.118 53.04C618.598 53.04 620.491 53.6667 621.798 54.92C623.105 56.1733 623.758 58.1467 623.758 60.84V74H616.998ZM629.138 66.88V58.84H626.618V53.6H629.138V47.52H635.898V53.6H641.218V58.84H635.898V66.04C635.898 67 636.098 67.7067 636.498 68.16C636.898 68.5867 637.618 68.8 638.658 68.8H641.218V74H636.178C633.565 74 631.738 73.44 630.698 72.32C629.658 71.1733 629.138 69.36 629.138 66.88ZM643.465 68.44C643.465 66.3333 644.171 64.7467 645.585 63.68C646.998 62.5867 649.238 61.9467 652.305 61.76L658.185 61.48V60.72C658.185 59.52 657.891 58.6933 657.305 58.24C656.718 57.76 655.838 57.52 654.665 57.52C653.571 57.52 652.758 57.7067 652.225 58.08C651.691 58.4267 651.345 58.9733 651.185 59.72H644.185C644.451 57.5333 645.438 55.88 647.145 54.76C648.878 53.6133 651.411 53.04 654.745 53.04C658.131 53.04 660.665 53.6667 662.345 54.92C664.051 56.1467 664.905 58.08 664.905 60.72V74H658.385V71.2C657.718 72.2667 656.758 73.0933 655.505 73.68C654.251 74.2667 652.651 74.56 650.705 74.56C648.331 74.56 646.531 74.0133 645.305 72.92C644.078 71.8 643.465 70.3067 643.465 68.44ZM650.345 68C650.345 68.72 650.585 69.2533 651.065 69.6C651.571 69.9467 652.318 70.12 653.305 70.12C654.798 70.12 655.985 69.7867 656.865 69.12C657.745 68.4267 658.185 67.4 658.185 66.04V65.16L653.465 65.4C652.371 65.48 651.571 65.68 651.065 66C650.585 66.32 650.345 66.8267 650.345 67.52V68Z" fill="#00666C"/>
</svg>
