<svg width="760" height="118" viewBox="0 0 760 118" fill="none" xmlns="http://www.w3.org/2000/svg">
<path d="M4.608 64.528V62.528H2.48367L2.61163 64.6485L4.608 64.528ZM23.04 64.528L25.0274 64.3036L24.8269 62.528H23.04V64.528ZM28.928 75.152L27.9798 76.9129L28.0065 76.9273L28.0336 76.9409L28.928 75.152ZM58.112 74.896L57.1294 73.154L57.1196 73.1595L57.1099 73.1651L58.112 74.896ZM54.144 54.8L53.7463 56.7601L53.7518 56.7612L54.144 54.8ZM34.56 51.6L34.2738 53.5794L34.2871 53.5813L34.3003 53.5831L34.56 51.6ZM14.976 45.456L14.0308 47.2186L14.046 47.2267L14.0613 47.2346L14.976 45.456ZM15.616 6.41599L16.7202 8.08356L16.7254 8.08009L15.616 6.41599ZM68.736 6.032L67.674 7.72672L67.6871 7.73496L67.7004 7.743L68.736 6.032ZM79.104 25.616V27.616H81.1996L81.1018 25.5226L79.104 25.616ZM60.672 25.616L58.6775 25.7637L58.8147 27.616H60.672V25.616ZM55.168 16.4L54.2736 18.1888L54.3015 18.2028L54.3299 18.2159L55.168 16.4ZM28.416 16.656L29.367 18.4154L29.3852 18.4056L29.4032 18.3954L28.416 16.656ZM32.64 36.112L32.2478 38.0732L32.2613 38.0759L32.2748 38.0784L32.64 36.112ZM52.224 39.44L51.9145 41.4159L51.9262 41.4177L51.9378 41.4194L52.224 39.44ZM71.808 45.584L70.8933 47.3626L70.8933 47.3626L71.808 45.584ZM71.296 85.264L70.1763 83.6068L70.1658 83.6139L71.296 85.264ZM15.232 85.52L14.164 87.211L14.164 87.211L15.232 85.52ZM4.608 66.528H23.04V62.528H4.608V66.528ZM21.0526 64.7524C21.6911 70.4077 23.8599 74.6945 27.9798 76.9129L29.8762 73.3911C27.3401 72.0255 25.5835 69.2297 25.0274 64.3036L21.0526 64.7524ZM28.0336 76.9409C31.8522 78.8502 37.1214 79.712 43.648 79.712V75.712C37.3746 75.712 32.8304 74.8672 29.8224 73.3631L28.0336 76.9409ZM43.648 79.712C50.1812 79.712 55.4213 78.7648 59.1141 76.6269L57.1099 73.1651C54.3173 74.7819 49.9148 75.712 43.648 75.712V79.712ZM59.0946 76.638C63.1908 74.3273 65.104 70.3217 65.104 65.168H61.104C61.104 69.2303 59.6892 71.71 57.1294 73.154L59.0946 76.638ZM65.104 65.168C65.104 61.954 64.2576 59.1561 62.3772 56.9803C60.5094 54.8189 57.8138 53.4943 54.5362 52.8388L53.7518 56.7612C56.4476 57.3003 58.2319 58.301 59.3508 59.5957C60.4571 60.8759 61.104 62.6647 61.104 65.168H65.104ZM54.5417 52.8399C48.5999 51.6344 42.025 50.5605 34.8197 49.6169L34.3003 53.5831C41.431 54.5168 47.9121 55.5763 53.7463 56.7601L54.5417 52.8399ZM34.8462 49.6206C27.9683 48.6262 21.6546 46.6417 15.8907 43.6774L14.0613 47.2346C20.2441 50.4143 26.9864 52.5258 34.2738 53.5794L34.8462 49.6206ZM15.9212 43.6934C10.9401 41.0224 8.144 35.5942 8.144 26.512H4.144C4.144 36.3738 7.23591 43.5749 14.0308 47.2186L15.9212 43.6934ZM8.144 26.512C8.144 17.8003 11.0909 11.8111 16.7202 8.08355L14.5118 4.74843C7.51176 9.3836 4.144 16.7917 4.144 26.512H8.144ZM16.7254 8.08009C22.6752 4.11358 31.1082 2.016 42.24 2.016V-1.984C30.6731 -1.984 21.3568 0.185084 14.5066 4.75189L16.7254 8.08009ZM42.24 2.016C53.3009 2.016 61.7123 3.99071 67.674 7.72672L69.798 4.33727C62.9598 0.0519518 53.7071 -1.984 42.24 -1.984V2.016ZM67.7004 7.743C73.493 11.249 76.7033 17.0876 77.1062 25.7094L81.1018 25.5226C80.6514 15.8831 76.9497 8.66563 69.7716 4.321L67.7004 7.743ZM79.104 23.616H60.672V27.616H79.104V23.616ZM62.6665 25.4683C62.2879 20.3565 60.1735 16.5075 56.0061 14.5841L54.3299 18.2159C56.8185 19.3645 58.3735 21.6595 58.6775 25.7637L62.6665 25.4683ZM56.0624 14.6111C52.4406 12.8002 47.7886 11.968 42.24 11.968V15.968C47.4434 15.968 51.4101 16.7571 54.2736 18.1888L56.0624 14.6111ZM42.24 11.968C36.0401 11.968 31.0256 12.8752 27.4288 14.9166L29.4032 18.3954C32.121 16.8528 36.3225 15.968 42.24 15.968V11.968ZM27.465 14.8966C23.4594 17.0618 21.68 21.0904 21.68 26.256H25.68C25.68 22.0349 27.058 19.6636 29.367 18.4154L27.465 14.8966ZM21.68 26.256C21.68 29.3312 22.5446 32.0123 24.4401 34.0973C26.3106 36.1548 28.995 37.4226 32.2478 38.0732L33.0322 34.1508C30.3117 33.6067 28.5161 32.6345 27.3999 31.4067C26.3087 30.2063 25.68 28.5568 25.68 26.256H21.68ZM32.2748 38.0784C38.2696 39.1917 44.8164 40.3042 51.9145 41.4159L52.5335 37.4641C45.4662 36.3572 38.9571 35.251 33.0052 34.1456L32.2748 38.0784ZM51.9378 41.4194C58.8157 42.4138 65.1294 44.3983 70.8933 47.3626L72.7227 43.8054C66.5399 40.6257 59.7976 38.5142 52.5102 37.4606L51.9378 41.4194ZM70.8933 47.3626C75.95 49.9631 78.768 55.2613 78.768 64.144H82.768C82.768 54.424 79.6127 47.3489 72.7227 43.8054L70.8933 47.3626ZM78.768 64.144C78.768 73.5069 75.7842 79.8177 70.1763 83.6068L72.4157 86.9212C79.4371 82.177 82.768 74.4078 82.768 64.144H78.768ZM70.1658 83.6139C64.4153 87.5526 55.7133 89.664 43.776 89.664V93.664C56.0733 93.664 65.718 91.5087 72.4262 86.9141L70.1658 83.6139ZM43.776 89.664C31.3936 89.664 22.322 87.6324 16.3 83.829L14.164 87.211C21.1127 91.5996 31.0704 93.664 43.776 93.664V89.664ZM16.3 83.829C10.5137 80.1745 7.17548 73.8716 6.60437 64.4075L2.61163 64.6485C3.23519 74.9817 6.97965 82.6735 14.164 87.211L16.3 83.829ZM108.796 1.67999V-0.320007H106.796V1.67999H108.796ZM173.564 1.67999H175.564V-0.320007H173.564V1.67999ZM173.564 16.272V18.272H175.564V16.272H173.564ZM126.972 16.272V14.272H124.972V16.272H126.972ZM126.972 37.648H124.972V39.648H126.972V37.648ZM164.348 37.648H166.348V35.648H164.348V37.648ZM164.348 51.856V53.856H166.348V51.856H164.348ZM126.972 51.856V49.856H124.972V51.856H126.972ZM126.972 75.408H124.972V77.408H126.972V75.408ZM174.076 75.408H176.076V73.408H174.076V75.408ZM174.076 90V92H176.076V90H174.076ZM108.796 90H106.796V92H108.796V90ZM108.796 3.67999H173.564V-0.320007H108.796V3.67999ZM171.564 1.67999V16.272H175.564V1.67999H171.564ZM173.564 14.272H126.972V18.272H173.564V14.272ZM124.972 16.272V37.648H128.972V16.272H124.972ZM126.972 39.648H164.348V35.648H126.972V39.648ZM162.348 37.648V51.856H166.348V37.648H162.348ZM164.348 49.856H126.972V53.856H164.348V49.856ZM124.972 51.856V75.408H128.972V51.856H124.972ZM126.972 77.408H174.076V73.408H126.972V77.408ZM172.076 75.408V90H176.076V75.408H172.076ZM174.076 88H108.796V92H174.076V88ZM110.796 90V1.67999H106.796V90H110.796ZM202.626 1.67999V-0.320007H200.626V1.67999H202.626ZM268.802 8.848L267.449 10.3213L267.449 10.3213L268.802 8.848ZM260.61 54.8L259.931 52.9186L257.762 53.701L258.844 55.7378L260.61 54.8ZM279.298 90V92H282.624L281.064 89.0622L279.298 90ZM259.714 90L257.945 90.9326L258.507 92H259.714V90ZM242.306 56.976L244.075 56.0434L243.513 54.976H242.306V56.976ZM220.802 56.976V54.976H218.802V56.976H220.802ZM220.802 90V92H222.802V90H220.802ZM202.626 90H200.626V92H202.626V90ZM254.978 19.216L253.536 20.6022L253.55 20.6163L253.564 20.6302L254.978 19.216ZM220.802 15.888V13.888H218.802V15.888H220.802ZM220.802 42.768H218.802V44.768H220.802V42.768ZM254.85 39.568L253.436 38.1538L253.436 38.1538L254.85 39.568ZM202.626 3.67999H246.402V-0.320007H202.626V3.67999ZM246.402 3.67999C255.819 3.67999 262.733 5.99115 267.449 10.3213L270.155 7.37469C264.461 2.1475 256.441 -0.320007 246.402 -0.320007V3.67999ZM267.449 10.3213C272.145 14.6323 274.61 20.8243 274.61 29.2H278.61C278.61 19.9971 275.869 12.621 270.155 7.37469L267.449 10.3213ZM274.61 29.2C274.61 35.4072 273.304 40.4334 270.82 44.393L274.208 46.519C277.185 41.7746 278.61 35.9635 278.61 29.2H274.61ZM270.82 44.393C268.346 48.3364 264.751 51.1805 259.931 52.9186L261.289 56.6814C266.88 54.6649 271.221 51.2796 274.208 46.519L270.82 44.393ZM258.844 55.7378L277.532 90.9378L281.064 89.0622L262.376 53.8622L258.844 55.7378ZM279.298 88H259.714V92H279.298V88ZM261.483 89.0674L244.075 56.0434L240.537 57.9086L257.945 90.9326L261.483 89.0674ZM242.306 54.976H220.802V58.976H242.306V54.976ZM218.802 56.976V90H222.802V56.976H218.802ZM220.802 88H202.626V92H220.802V88ZM204.626 90V1.67999H200.626V90H204.626ZM260.178 31.12V27.664H256.178V31.12H260.178ZM260.178 27.664C260.178 23.7265 258.961 20.3704 256.392 17.8018L253.564 20.6302C255.262 22.3283 256.178 24.6042 256.178 27.664H260.178ZM256.42 17.8298C253.751 15.0539 249.693 13.888 244.738 13.888V17.888C249.169 17.888 251.939 18.9408 253.536 20.6022L256.42 17.8298ZM244.738 13.888H220.802V17.888H244.738V13.888ZM218.802 15.888V42.768H222.802V15.888H218.802ZM220.802 44.768H244.738V40.768H220.802V44.768ZM244.738 44.768C249.602 44.768 253.598 43.6481 256.264 40.9822L253.436 38.1538C251.835 39.7546 249.09 40.768 244.738 40.768V44.768ZM256.264 40.9822C258.893 38.3537 260.178 35.0124 260.178 31.12H256.178C256.178 34.0543 255.245 36.345 253.436 38.1538L256.264 40.9822ZM295.255 1.67999V-0.320007H292.426L293.369 2.34678L295.255 1.67999ZM314.199 1.67999L316.086 1.01756L315.617 -0.320007H314.199V1.67999ZM340.439 76.432L338.552 77.0944L340.444 82.4835L342.327 77.0915L340.439 76.432ZM366.551 1.67999V-0.320007H365.131L364.663 1.02044L366.551 1.67999ZM383.191 1.67999L385.077 2.34678L386.02 -0.320007H383.191V1.67999ZM351.959 90V92H353.373L353.845 90.6668L351.959 90ZM326.487 90L324.601 90.6668L325.073 92H326.487V90ZM295.255 3.67999H314.199V-0.320007H295.255V3.67999ZM312.312 2.34242L338.552 77.0944L342.326 75.7696L316.086 1.01756L312.312 2.34242ZM342.327 77.0915L368.439 2.33954L364.663 1.02044L338.551 75.7725L342.327 77.0915ZM366.551 3.67999H383.191V-0.320007H366.551V3.67999ZM381.305 1.01321L350.073 89.3332L353.845 90.6668L385.077 2.34678L381.305 1.01321ZM351.959 88H326.487V92H351.959V88ZM328.373 89.3332L297.141 1.01321L293.369 2.34678L324.601 90.6668L328.373 89.3332ZM407.161 1.67999V-0.320007H405.161V1.67999H407.161ZM425.337 1.67999H427.337V-0.320007H425.337V1.67999ZM425.337 90V92H427.337V90H425.337ZM407.161 90H405.161V92H407.161V90ZM407.161 3.67999H425.337V-0.320007H407.161V3.67999ZM423.337 1.67999V90H427.337V1.67999H423.337ZM425.337 88H407.161V92H425.337V88ZM409.161 90V1.67999H405.161V90H409.161ZM465.162 10.384L466.524 11.8484L466.525 11.8478L465.162 10.384ZM524.17 6.92799L523.041 8.57912L523.049 8.58402L523.056 8.58885L524.17 6.92799ZM535.946 29.712V31.712H538.165L537.935 29.5051L535.946 29.712ZM517.514 29.712L515.534 29.9909L515.776 31.712H517.514V29.712ZM510.858 17.552L509.848 19.278L509.857 19.2833L509.866 19.2885L510.858 17.552ZM478.858 19.856L477.587 18.3121L477.579 18.3183L477.572 18.3246L478.858 19.856ZM478.858 71.44L480.196 69.9534L480.196 69.9534L478.858 71.44ZM510.602 74.256L511.563 76.0102L511.57 76.0063L511.577 76.0024L510.602 74.256ZM517.642 62.48V60.48H515.964L515.672 62.1324L517.642 62.48ZM536.074 62.48L538.057 62.7401L538.353 60.48H536.074V62.48ZM523.914 84.88L522.8 83.2191L522.79 83.2258L523.914 84.88ZM478.346 89.36L477.751 91.2695L477.766 91.274L477.78 91.2782L478.346 89.36ZM465.162 81.552L466.576 80.1378L466.576 80.1378L465.162 81.552ZM456.97 67.344L458.875 66.7365L458.875 66.7365L456.97 67.344ZM487.306 117.52H485.306V119.52H487.306V117.52ZM487.306 108.432V106.432H485.306V108.432H487.306ZM497.29 107.664L496.658 105.767L496.602 105.785L496.547 105.807L497.29 107.664ZM497.162 101.648L497.864 99.7753L497.812 99.7557L497.759 99.739L497.162 101.648ZM488.33 101.008H486.33V103.008H488.33V101.008ZM488.33 89.744V87.744H486.33V89.744H488.33ZM499.978 89.744H501.978V87.744H499.978V89.744ZM499.978 94.608H497.978V96.4416L499.805 96.6005L499.978 94.608ZM509.962 97.168L509.068 98.9569L509.078 98.9623L509.089 98.9676L509.962 97.168ZM509.706 114.448L508.608 112.777L508.58 112.795L508.553 112.814L509.706 114.448ZM456.154 45.712C456.154 29.1872 459.794 18.1086 466.524 11.8484L463.8 8.91962C455.852 16.3127 452.154 28.7861 452.154 45.712H456.154ZM466.525 11.8478C473.479 5.37283 483.22 2.016 496.01 2.016V-1.984C482.517 -1.984 471.693 1.57116 463.799 8.92021L466.525 11.8478ZM496.01 2.016C507.82 2.016 516.756 4.28254 523.041 8.57912L525.299 5.27687C518.102 0.357454 508.264 -1.984 496.01 -1.984V2.016ZM523.056 8.58885C529.157 12.682 532.888 19.6402 533.957 29.9189L537.935 29.5051C536.786 18.4504 532.666 10.2193 525.284 5.26713L523.056 8.58885ZM535.946 27.712H517.514V31.712H535.946V27.712ZM519.494 29.4331C518.598 23.0678 516.192 18.2966 511.85 15.8155L509.866 19.2885C512.692 20.9034 514.723 24.2389 515.534 29.9909L519.494 29.4331ZM511.868 15.826C507.935 13.5233 502.578 12.48 496.01 12.48V16.48C502.241 16.48 506.784 17.4847 509.848 19.278L511.868 15.826ZM496.01 12.48C488.585 12.48 482.381 14.3641 477.587 18.3121L480.129 21.3999C484.039 18.1799 489.269 16.48 496.01 16.48V12.48ZM477.572 18.3246C472.611 22.4915 470.458 29.875 470.458 39.696H474.458C474.458 30.2317 476.572 24.3885 480.144 21.3874L477.572 18.3246ZM470.458 39.696V51.6H474.458V39.696H470.458ZM470.458 51.6C470.458 61.2046 472.628 68.5239 477.52 72.9266L480.196 69.9534C476.554 66.6761 474.458 60.7687 474.458 51.6H470.458ZM477.52 72.9266C482.239 77.1737 488.476 79.2 496.01 79.2V75.2C489.208 75.2 484.01 73.3863 480.196 69.9534L477.52 72.9266ZM496.01 79.2C502.334 79.2 507.573 78.1953 511.563 76.0102L509.641 72.5018C506.463 74.2421 501.974 75.2 496.01 75.2V79.2ZM511.577 76.0024C515.958 73.5568 518.527 68.9725 519.612 62.8276L515.672 62.1324C514.709 67.5928 512.584 70.8592 509.627 72.5096L511.577 76.0024ZM517.642 64.48H536.074V60.48H517.642V64.48ZM534.091 62.2199C532.777 72.2388 528.932 79.105 522.8 83.2191L525.028 86.5409C532.378 81.6097 536.64 73.5425 538.057 62.7401L534.091 62.2199ZM522.79 83.2258C516.59 87.4384 507.739 89.664 496.01 89.664V93.664C508.174 93.664 517.926 91.367 525.038 86.5342L522.79 83.2258ZM496.01 89.664C489.592 89.664 483.9 88.9135 478.912 87.4418L477.78 91.2782C483.203 92.8785 489.287 93.664 496.01 93.664V89.664ZM478.941 87.4505C474.021 85.918 469.914 83.4756 466.576 80.1378L463.748 82.9662C467.578 86.7964 472.261 89.5593 477.751 91.2695L478.941 87.4505ZM466.576 80.1378C463.262 76.8239 460.677 72.3861 458.875 66.7365L455.065 67.9515C457.018 74.0779 459.894 79.1121 463.748 82.9662L466.576 80.1378ZM458.875 66.7365C457.08 61.1037 456.154 54.1116 456.154 45.712H452.154C452.154 54.379 453.106 61.8083 455.065 67.9515L458.875 66.7365ZM489.306 117.52V108.432H485.306V117.52H489.306ZM487.306 110.432C490.018 110.432 492.251 110.368 493.987 110.234C495.648 110.106 497.078 109.903 498.033 109.521L496.547 105.807C496.222 105.937 495.348 106.118 493.681 106.246C492.089 106.368 489.97 106.432 487.306 106.432V110.432ZM497.922 109.561C498.948 109.219 499.83 108.589 500.426 107.636C501.002 106.715 501.21 105.653 501.21 104.592H497.21C497.21 105.153 497.098 105.413 497.034 105.516C496.99 105.587 496.912 105.682 496.658 105.767L497.922 109.561ZM501.21 104.592C501.21 103.547 500.96 102.518 500.34 101.626C499.72 100.735 498.842 100.142 497.864 99.7753L496.46 103.521C496.847 103.666 496.993 103.82 497.056 103.91C497.118 104 497.21 104.186 497.21 104.592H501.21ZM497.759 99.739C496.844 99.4532 495.574 99.2819 494.075 99.1732C492.536 99.0618 490.617 99.008 488.33 99.008V103.008C490.566 103.008 492.38 103.061 493.785 103.163C495.23 103.267 496.115 103.416 496.565 103.557L497.759 99.739ZM490.33 101.008V89.744H486.33V101.008H490.33ZM488.33 91.744H499.978V87.744H488.33V91.744ZM497.978 89.744V94.608H501.978V89.744H497.978ZM499.805 96.6005C503.549 96.926 506.617 97.7317 509.068 98.9569L510.856 95.3791C507.845 93.8736 504.258 92.9726 500.151 92.6155L499.805 96.6005ZM509.089 98.9676C510.951 99.8702 512.186 101.812 512.186 105.744H516.186C516.186 100.972 514.605 97.1965 510.835 95.3684L509.089 98.9676ZM512.186 105.744C512.186 108.97 510.983 111.215 508.608 112.777L510.804 116.119C514.402 113.755 516.186 110.198 516.186 105.744H512.186ZM508.553 112.814C506.126 114.527 502.418 115.52 497.162 115.52V119.52C502.829 119.52 507.483 118.465 510.859 116.082L508.553 112.814ZM497.162 115.52H487.306V119.52H497.162V115.52ZM562.428 23.952L560.533 23.3112L560.533 23.3112L562.428 23.952ZM571.004 10L572.367 11.4632L572.367 11.4632L571.004 10ZM585.084 2.448L585.61 4.37753L585.62 4.37487L585.63 4.37213L585.084 2.448ZM623.996 2.448L623.443 4.36994L623.456 4.37383L623.47 4.37753L623.996 2.448ZM638.076 10L636.713 11.4632L636.721 11.4709L636.729 11.4784L638.076 10ZM646.78 23.952L644.885 24.5928L646.78 23.952ZM646.78 67.088L648.677 67.7205L648.68 67.7123L646.78 67.088ZM638.076 81.424L639.457 82.8707L639.458 82.87L638.076 81.424ZM623.996 89.232L624.549 91.1539L624.549 91.1539L623.996 89.232ZM585.084 89.232L584.531 91.154L584.538 91.1561L585.084 89.232ZM571.004 81.424L569.606 82.8544L569.615 82.8626L569.623 82.8707L571.004 81.424ZM562.428 67.088L560.528 67.7123L560.531 67.7205L562.428 67.088ZM624.508 20.496L623.167 21.9797L623.182 21.9932L623.197 22.0064L624.508 20.496ZM584.572 20.496L585.897 21.994L585.905 21.9869L585.913 21.9797L584.572 20.496ZM584.572 71.184L583.231 72.6677L583.231 72.6677L584.572 71.184ZM624.508 71.312L625.833 72.81L625.835 72.8084L624.508 71.312ZM561.484 45.2C561.484 36.9813 562.45 30.129 564.323 24.5928L560.533 23.3112C558.481 29.3803 557.484 36.6933 557.484 45.2H561.484ZM564.323 24.5928C566.2 19.0435 568.898 14.6961 572.367 11.4632L569.641 8.53678C565.601 12.3013 562.582 17.2552 560.533 23.3112L564.323 24.5928ZM572.367 11.4632C575.854 8.2143 580.248 5.84007 585.61 4.37753L584.558 0.51847C578.656 2.12792 573.663 4.78837 569.641 8.53678L572.367 11.4632ZM585.63 4.37213C591.135 2.81077 597.432 2.016 604.54 2.016V-1.984C597.141 -1.984 590.467 -1.15744 584.538 0.52387L585.63 4.37213ZM604.54 2.016C611.736 2.016 618.029 2.8115 623.443 4.36994L624.549 0.526053C618.699 -1.15817 612.021 -1.984 604.54 -1.984V2.016ZM623.47 4.37753C628.832 5.84007 633.226 8.2143 636.713 11.4632L639.439 8.53678C635.417 4.78837 630.424 2.12792 624.522 0.51847L623.47 4.37753ZM636.729 11.4784C640.277 14.711 643.012 19.0535 644.885 24.5928L648.675 23.3112C646.623 17.2451 643.555 12.2863 639.423 8.52161L636.729 11.4784ZM644.885 24.5928C646.758 30.129 647.724 36.9813 647.724 45.2H651.724C651.724 36.6933 650.727 29.3803 648.675 23.3112L644.885 24.5928ZM647.724 45.2C647.724 53.6795 646.757 60.751 644.88 66.4637L648.68 67.7123C650.728 61.4783 651.724 53.9579 651.724 45.2H647.724ZM644.883 66.4555C643.006 72.0866 640.262 76.569 636.694 79.978L639.458 82.87C643.57 78.9404 646.629 73.8654 648.677 67.7205L644.883 66.4555ZM636.695 79.9773C633.203 83.311 628.805 85.7664 623.443 87.3101L624.549 91.1539C630.451 89.455 635.44 86.705 639.457 82.8707L636.695 79.9773ZM623.443 87.3101C618.029 88.8685 611.736 89.664 604.54 89.664V93.664C612.021 93.664 618.699 92.8382 624.549 91.1539L623.443 87.3101ZM604.54 89.664C597.432 89.664 591.135 88.8692 585.63 87.3079L584.538 91.1561C590.467 92.8374 597.141 93.664 604.54 93.664V89.664ZM585.637 87.3101C580.275 85.7664 575.877 83.311 572.385 79.9773L569.623 82.8707C573.64 86.705 578.629 89.455 584.531 91.1539L585.637 87.3101ZM572.402 79.9936C568.913 76.5839 566.206 72.0964 564.325 66.4555L560.531 67.7205C562.576 73.8556 565.586 78.9255 569.606 82.8544L572.402 79.9936ZM564.328 66.4637C562.451 60.751 561.484 53.6795 561.484 45.2H557.484C557.484 53.9579 558.48 61.4783 560.528 67.7123L564.328 66.4637ZM633.292 50.96V40.208H629.292V50.96H633.292ZM633.292 40.208C633.292 30.7249 630.97 23.4563 625.819 18.9856L623.197 22.0064C627.091 25.3863 629.292 31.2591 629.292 40.208H633.292ZM625.849 19.0122C620.901 14.54 613.676 12.48 604.54 12.48V16.48C613.154 16.48 619.24 18.4307 623.167 21.9797L625.849 19.0122ZM604.54 12.48C595.404 12.48 588.179 14.54 583.231 19.0122L585.913 21.9797C589.84 18.4307 595.926 16.48 604.54 16.48V12.48ZM583.247 18.998C578.19 23.4714 575.916 30.7351 575.916 40.208H579.916C579.916 31.2489 582.079 25.3713 585.897 21.994L583.247 18.998ZM575.916 40.208V50.96H579.916V40.208H575.916ZM575.916 50.96C575.916 60.6734 578.182 68.1046 583.231 72.6677L585.913 69.7003C582.087 66.2421 579.916 60.1906 579.916 50.96H575.916ZM583.231 72.6677C588.179 77.14 595.404 79.2 604.54 79.2V75.2C595.926 75.2 589.84 73.2493 585.913 69.7003L583.231 72.6677ZM604.54 79.2C613.667 79.2 620.885 77.1869 625.833 72.81L623.183 69.814C619.256 73.2878 613.163 75.2 604.54 75.2V79.2ZM625.835 72.8084C630.981 68.2446 633.292 60.7618 633.292 50.96H629.292C629.292 60.2729 627.08 66.358 623.181 69.8156L625.835 72.8084ZM673.918 64.528V62.528H671.794L671.922 64.6485L673.918 64.528ZM692.35 64.528L694.337 64.3036L694.137 62.528H692.35V64.528ZM698.238 75.152L697.29 76.9129L697.316 76.9273L697.344 76.9409L698.238 75.152ZM727.422 74.896L726.439 73.154L726.43 73.1595L726.42 73.1651L727.422 74.896ZM723.454 54.8L723.056 56.7601L723.062 56.7612L723.454 54.8ZM703.87 51.6L703.584 53.5794L703.597 53.5813L703.61 53.5831L703.87 51.6ZM684.286 45.456L683.341 47.2186L683.356 47.2267L683.371 47.2346L684.286 45.456ZM684.926 6.41599L686.03 8.08356L686.035 8.08009L684.926 6.41599ZM738.046 6.032L736.984 7.72672L736.997 7.73496L737.01 7.743L738.046 6.032ZM748.414 25.616V27.616H750.51L750.412 25.5226L748.414 25.616ZM729.982 25.616L727.987 25.7637L728.125 27.616H729.982V25.616ZM724.478 16.4L723.584 18.1888L723.612 18.2028L723.64 18.2159L724.478 16.4ZM697.726 16.656L698.677 18.4154L698.695 18.4056L698.713 18.3954L697.726 16.656ZM701.95 36.112L701.558 38.0732L701.571 38.0759L701.585 38.0784L701.95 36.112ZM721.534 39.44L721.225 41.4159L721.236 41.4177L721.248 41.4194L721.534 39.44ZM741.118 45.584L740.203 47.3626L740.203 47.3626L741.118 45.584ZM740.606 85.264L739.486 83.6068L739.476 83.6139L740.606 85.264ZM684.542 85.52L683.474 87.211L683.474 87.211L684.542 85.52ZM673.918 66.528H692.35V62.528H673.918V66.528ZM690.363 64.7524C691.001 70.4077 693.17 74.6945 697.29 76.9129L699.186 73.3911C696.65 72.0255 694.894 69.2297 694.337 64.3036L690.363 64.7524ZM697.344 76.9409C701.162 78.8502 706.431 79.712 712.958 79.712V75.712C706.685 75.712 702.14 74.8672 699.132 73.3631L697.344 76.9409ZM712.958 79.712C719.491 79.712 724.731 78.7648 728.424 76.6269L726.42 73.1651C723.627 74.7819 719.225 75.712 712.958 75.712V79.712ZM728.405 76.638C732.501 74.3273 734.414 70.3217 734.414 65.168H730.414C730.414 69.2303 728.999 71.71 726.439 73.154L728.405 76.638ZM734.414 65.168C734.414 61.954 733.568 59.1561 731.687 56.9803C729.819 54.8189 727.124 53.4943 723.846 52.8388L723.062 56.7612C725.758 57.3003 727.542 58.301 728.661 59.5957C729.767 60.8759 730.414 62.6647 730.414 65.168H734.414ZM723.852 52.8399C717.91 51.6344 711.335 50.5605 704.13 49.6169L703.61 53.5831C710.741 54.5168 717.222 55.5763 723.056 56.7601L723.852 52.8399ZM704.156 49.6206C697.278 48.6262 690.965 46.6417 685.201 43.6774L683.371 47.2346C689.554 50.4143 696.296 52.5258 703.584 53.5794L704.156 49.6206ZM685.231 43.6934C680.25 41.0224 677.454 35.5942 677.454 26.512H673.454C673.454 36.3738 676.546 43.5749 683.341 47.2186L685.231 43.6934ZM677.454 26.512C677.454 17.8003 680.401 11.8111 686.03 8.08355L683.822 4.74843C676.822 9.3836 673.454 16.7917 673.454 26.512H677.454ZM686.035 8.08009C691.985 4.11358 700.418 2.016 711.55 2.016V-1.984C699.983 -1.984 690.667 0.185084 683.817 4.75189L686.035 8.08009ZM711.55 2.016C722.611 2.016 731.022 3.99071 736.984 7.72672L739.108 4.33727C732.27 0.0519518 723.017 -1.984 711.55 -1.984V2.016ZM737.01 7.743C742.803 11.249 746.013 17.0876 746.416 25.7094L750.412 25.5226C749.961 15.8831 746.26 8.66563 739.082 4.321L737.01 7.743ZM748.414 23.616H729.982V27.616H748.414V23.616ZM731.977 25.4683C731.598 20.3565 729.483 16.5075 725.316 14.5841L723.64 18.2159C726.129 19.3645 727.683 21.6595 727.987 25.7637L731.977 25.4683ZM725.372 14.6111C721.751 12.8002 717.099 11.968 711.55 11.968V15.968C716.753 15.968 720.72 16.7571 723.584 18.1888L725.372 14.6111ZM711.55 11.968C705.35 11.968 700.336 12.8752 696.739 14.9166L698.713 18.3954C701.431 16.8528 705.633 15.968 711.55 15.968V11.968ZM696.775 14.8966C692.769 17.0618 690.99 21.0904 690.99 26.256H694.99C694.99 22.0349 696.368 19.6636 698.677 18.4154L696.775 14.8966ZM690.99 26.256C690.99 29.3312 691.855 32.0123 693.75 34.0973C695.621 36.1548 698.305 37.4226 701.558 38.0732L702.342 34.1508C699.622 33.6067 697.826 32.6345 696.71 31.4067C695.619 30.2063 694.99 28.5568 694.99 26.256H690.99ZM701.585 38.0784C707.58 39.1917 714.126 40.3042 721.225 41.4159L721.843 37.4641C714.776 36.3572 708.267 35.251 702.315 34.1456L701.585 38.0784ZM721.248 41.4194C728.126 42.4138 734.439 44.3983 740.203 47.3626L742.033 43.8054C735.85 40.6257 729.108 38.5142 721.82 37.4606L721.248 41.4194ZM740.203 47.3626C745.26 49.9631 748.078 55.2613 748.078 64.144H752.078C752.078 54.424 748.923 47.3489 742.033 43.8054L740.203 47.3626ZM748.078 64.144C748.078 73.5069 745.094 79.8177 739.486 83.6068L741.726 86.9212C748.747 82.177 752.078 74.4078 752.078 64.144H748.078ZM739.476 83.6139C733.725 87.5526 725.023 89.664 713.086 89.664V93.664C725.383 93.664 735.028 91.5087 741.736 86.9141L739.476 83.6139ZM713.086 89.664C700.704 89.664 691.632 87.6324 685.61 83.829L683.474 87.211C690.423 91.5996 700.38 93.664 713.086 93.664V89.664ZM685.61 83.829C679.824 80.1745 676.485 73.8716 675.914 64.4075L671.922 64.6485C672.545 74.9817 676.29 82.6735 683.474 87.211L685.61 83.829Z" fill="#00666C" fill-opacity="0.2"/>
<path d="M19.28 74L9.16 54.44V74H2.68V46.4H12.28L22.36 65.92V46.4H28.84V74H19.28ZM32.61 63.8C32.61 61.7467 32.85 60.0267 33.33 58.64C33.8367 57.2533 34.5567 56.1467 35.49 55.32C36.45 54.4933 37.65 53.9067 39.09 53.56C40.53 53.2133 42.1833 53.04 44.05 53.04C45.9433 53.04 47.61 53.2133 49.05 53.56C50.49 53.9067 51.69 54.4933 52.65 55.32C53.61 56.1467 54.33 57.2533 54.81 58.64C55.29 60.0267 55.53 61.7467 55.53 63.8C55.53 65.88 55.29 67.6133 54.81 69C54.33 70.3867 53.61 71.4933 52.65 72.32C51.69 73.1467 50.49 73.72 49.05 74.04C47.61 74.3867 45.9433 74.56 44.05 74.56C42.1833 74.56 40.53 74.3867 39.09 74.04C37.65 73.72 36.45 73.1467 35.49 72.32C34.5567 71.4933 33.8367 70.3867 33.33 69C32.85 67.6133 32.61 65.88 32.61 63.8ZM48.65 65.52V62.12C48.65 60.44 48.2633 59.2933 47.49 58.68C46.7167 58.04 45.57 57.72 44.05 57.72C42.5567 57.72 41.4233 58.04 40.65 58.68C39.8767 59.2933 39.49 60.44 39.49 62.12V65.52C39.49 67.1733 39.8767 68.32 40.65 68.96C41.4233 69.5733 42.5567 69.88 44.05 69.88C45.57 69.88 46.7167 69.5733 47.49 68.96C48.2633 68.32 48.65 67.1733 48.65 65.52ZM63.9263 74L56.5263 53.6H63.2063L68.2863 68.12L73.2463 53.6H79.3263L72.0463 74H63.9263ZM80.0272 68.44C80.0272 66.3333 80.7339 64.7467 82.1472 63.68C83.5605 62.5867 85.8005 61.9467 88.8672 61.76L94.7472 61.48V60.72C94.7472 59.52 94.4539 58.6933 93.8672 58.24C93.2805 57.76 92.4005 57.52 91.2272 57.52C90.1339 57.52 89.3205 57.7067 88.7872 58.08C88.2539 58.4267 87.9072 58.9733 87.7472 59.72H80.7472C81.0139 57.5333 82.0005 55.88 83.7072 54.76C85.4405 53.6133 87.9739 53.04 91.3072 53.04C94.6939 53.04 97.2272 53.6667 98.9072 54.92C100.614 56.1467 101.467 58.08 101.467 60.72V74H94.9472V71.2C94.2805 72.2667 93.3205 73.0933 92.0672 73.68C90.8139 74.2667 89.2139 74.56 87.2672 74.56C84.8939 74.56 83.0939 74.0133 81.8672 72.92C80.6405 71.8 80.0272 70.3067 80.0272 68.44ZM86.9072 68C86.9072 68.72 87.1472 69.2533 87.6272 69.6C88.1339 69.9467 88.8805 70.12 89.8672 70.12C91.3605 70.12 92.5472 69.7867 93.4272 69.12C94.3072 68.4267 94.7472 67.4 94.7472 66.04V65.16L90.0272 65.4C88.9339 65.48 88.1339 65.68 87.6272 66C87.1472 66.32 86.9072 66.8267 86.9072 67.52V68ZM104.753 67.52H111.633C111.686 68.5333 112.059 69.24 112.753 69.64C113.446 70.0133 114.393 70.2 115.593 70.2C116.846 70.2 117.779 70.04 118.393 69.72C119.006 69.4 119.313 68.9067 119.313 68.24C119.313 67.12 118.566 66.48 117.073 66.32C115.606 66.16 113.993 65.9733 112.233 65.76C110.473 65.5467 108.846 65.04 107.353 64.24C105.886 63.44 105.153 61.8533 105.153 59.48C105.153 57.24 106.033 55.6133 107.793 54.6C109.579 53.56 112.006 53.04 115.073 53.04C118.166 53.04 120.633 53.56 122.473 54.6C124.339 55.6133 125.326 57.3067 125.433 59.68H118.553C118.473 58.7733 118.126 58.1733 117.513 57.88C116.899 57.56 116.086 57.4 115.073 57.4C114.033 57.4 113.233 57.5467 112.673 57.84C112.113 58.1067 111.833 58.56 111.833 59.2C111.833 60.24 112.566 60.84 114.033 61C115.526 61.1333 117.139 61.32 118.873 61.56C120.633 61.7733 122.246 62.2933 123.713 63.12C125.206 63.92 125.953 65.52 125.953 67.92C125.953 70.24 125.046 71.9333 123.233 73C121.419 74.04 118.873 74.56 115.593 74.56C112.233 74.56 109.619 74.0133 107.753 72.92C105.886 71.8 104.886 70 104.753 67.52ZM136.706 67.52H143.586C143.639 68.5333 144.013 69.24 144.706 69.64C145.399 70.0133 146.346 70.2 147.546 70.2C148.799 70.2 149.733 70.04 150.346 69.72C150.959 69.4 151.266 68.9067 151.266 68.24C151.266 67.12 150.519 66.48 149.026 66.32C147.559 66.16 145.946 65.9733 144.186 65.76C142.426 65.5467 140.799 65.04 139.306 64.24C137.839 63.44 137.106 61.8533 137.106 59.48C137.106 57.24 137.986 55.6133 139.746 54.6C141.533 53.56 143.959 53.04 147.026 53.04C150.119 53.04 152.586 53.56 154.426 54.6C156.293 55.6133 157.279 57.3067 157.386 59.68H150.506C150.426 58.7733 150.079 58.1733 149.466 57.88C148.853 57.56 148.039 57.4 147.026 57.4C145.986 57.4 145.186 57.5467 144.626 57.84C144.066 58.1067 143.786 58.56 143.786 59.2C143.786 60.24 144.519 60.84 145.986 61C147.479 61.1333 149.093 61.32 150.826 61.56C152.586 61.7733 154.199 62.2933 155.666 63.12C157.159 63.92 157.906 65.52 157.906 67.92C157.906 70.24 156.999 71.9333 155.186 73C153.373 74.04 150.826 74.56 147.546 74.56C144.186 74.56 141.573 74.0133 139.706 72.92C137.839 71.8 136.839 70 136.706 67.52ZM160.383 63.8C160.383 61.7467 160.623 60.0267 161.103 58.64C161.61 57.2533 162.33 56.1467 163.263 55.32C164.223 54.4933 165.423 53.9067 166.863 53.56C168.303 53.2133 169.957 53.04 171.823 53.04C173.717 53.04 175.383 53.2133 176.823 53.56C178.263 53.9067 179.463 54.4933 180.423 55.32C181.383 56.1467 182.103 57.2533 182.583 58.64C183.063 60.0267 183.303 61.7467 183.303 63.8C183.303 65.88 183.063 67.6133 182.583 69C182.103 70.3867 181.383 71.4933 180.423 72.32C179.463 73.1467 178.263 73.72 176.823 74.04C175.383 74.3867 173.717 74.56 171.823 74.56C169.957 74.56 168.303 74.3867 166.863 74.04C165.423 73.72 164.223 73.1467 163.263 72.32C162.33 71.4933 161.61 70.3867 161.103 69C160.623 67.6133 160.383 65.88 160.383 63.8ZM176.423 65.52V62.12C176.423 60.44 176.037 59.2933 175.263 58.68C174.49 58.04 173.343 57.72 171.823 57.72C170.33 57.72 169.197 58.04 168.423 58.68C167.65 59.2933 167.263 60.44 167.263 62.12V65.52C167.263 67.1733 167.65 68.32 168.423 68.96C169.197 69.5733 170.33 69.88 171.823 69.88C173.343 69.88 174.49 69.5733 175.263 68.96C176.037 68.32 176.423 67.1733 176.423 65.52ZM187.008 44.8H193.728V74H187.008V44.8ZM198.254 66.76V53.6H205.014V66.56C205.014 67.84 205.32 68.7067 205.934 69.16C206.574 69.6133 207.534 69.84 208.814 69.84C209.987 69.84 210.947 69.6 211.694 69.12C212.467 68.64 212.854 67.7867 212.854 66.56V53.6H219.574V74H213.014V70.92C212.427 72.1733 211.494 73.0933 210.214 73.68C208.934 74.2667 207.494 74.56 205.894 74.56C203.467 74.56 201.587 73.9733 200.254 72.8C198.92 71.6267 198.254 69.6133 198.254 66.76ZM223.353 63.8C223.353 59.8533 224.22 57.08 225.953 55.48C227.713 53.8533 230.406 53.04 234.033 53.04C237.1 53.04 239.54 53.5733 241.353 54.64C243.166 55.7067 244.193 57.52 244.433 60.08H237.553C237.446 59.3333 237.126 58.76 236.593 58.36C236.06 57.9333 235.206 57.72 234.033 57.72C232.726 57.72 231.766 58.0133 231.153 58.6C230.54 59.1867 230.233 60.2 230.233 61.64V65.8C230.233 67.32 230.553 68.3867 231.193 69C231.86 69.5867 232.806 69.88 234.033 69.88C235.26 69.88 236.14 69.6667 236.673 69.24C237.206 68.7867 237.526 68.1867 237.633 67.44H244.513C244.22 69.7867 243.22 71.56 241.513 72.76C239.833 73.96 237.34 74.56 234.033 74.56C232.273 74.56 230.713 74.3867 229.353 74.04C228.02 73.6933 226.913 73.1067 226.033 72.28C225.153 71.4533 224.486 70.3467 224.033 68.96C223.58 67.5733 223.353 65.8533 223.353 63.8ZM230.913 82.96V79.6C232.46 79.6 233.406 79.52 233.753 79.36C234.126 79.2267 234.313 78.9467 234.313 78.52C234.313 78.0933 234.113 77.8133 233.713 77.68C233.34 77.5733 232.486 77.52 231.153 77.52V74H235.593V75.36C236.82 75.4667 237.86 75.7333 238.713 76.16C239.566 76.6133 239.993 77.56 239.993 79C239.993 80.28 239.486 81.2533 238.473 81.92C237.486 82.6133 236.113 82.96 234.353 82.96H230.913ZM246.829 63.8C246.829 61.7467 247.069 60.0267 247.549 58.64C248.055 57.2533 248.775 56.1467 249.709 55.32C250.669 54.4933 251.869 53.9067 253.309 53.56C254.749 53.2133 256.402 53.04 258.269 53.04C260.162 53.04 261.829 53.2133 263.269 53.56C264.709 53.9067 265.909 54.4933 266.869 55.32C267.829 56.1467 268.549 57.2533 269.029 58.64C269.509 60.0267 269.749 61.7467 269.749 63.8C269.749 65.88 269.509 67.6133 269.029 69C268.549 70.3867 267.829 71.4933 266.869 72.32C265.909 73.1467 264.709 73.72 263.269 74.04C261.829 74.3867 260.162 74.56 258.269 74.56C256.402 74.56 254.749 74.3867 253.309 74.04C251.869 73.72 250.669 73.1467 249.709 72.32C248.775 71.4933 248.055 70.3867 247.549 69C247.069 67.6133 246.829 65.88 246.829 63.8ZM262.869 65.52V62.12C262.869 60.44 262.482 59.2933 261.709 58.68C260.935 58.04 259.789 57.72 258.269 57.72C256.775 57.72 255.642 58.04 254.869 58.68C254.095 59.2933 253.709 60.44 253.709 62.12V65.52C253.709 67.1733 254.095 68.32 254.869 68.96C255.642 69.5733 256.775 69.88 258.269 69.88C259.789 69.88 260.935 69.5733 261.709 68.96C262.482 68.32 262.869 67.1733 262.869 65.52ZM254.909 43.2C255.762 43.2 256.482 43.3467 257.069 43.64C257.682 43.9333 258.202 44.2533 258.629 44.6C259.055 44.92 259.429 45.2267 259.749 45.52C260.095 45.8133 260.455 45.96 260.829 45.96C261.255 45.96 261.575 45.7333 261.789 45.28C262.002 44.8267 262.109 44.1867 262.109 43.36H266.349C266.349 45.7067 265.962 47.5067 265.189 48.76C264.415 49.9867 263.255 50.6 261.709 50.6C260.829 50.6 260.082 50.4533 259.469 50.16C258.882 49.8667 258.375 49.5467 257.949 49.2C257.522 48.8533 257.135 48.5333 256.789 48.24C256.469 47.9467 256.135 47.8 255.789 47.8C255.362 47.8 255.029 48.04 254.789 48.52C254.575 48.9733 254.469 49.6133 254.469 50.44H250.229C250.229 48.0933 250.615 46.3067 251.389 45.08C252.162 43.8267 253.335 43.2 254.909 43.2ZM272.414 63.88C272.414 60.0133 273.334 57.24 275.174 55.56C277.04 53.88 279.734 53.04 283.254 53.04C286.8 53.04 289.507 53.84 291.374 55.44C293.24 57.0133 294.174 59.6267 294.174 63.28V64.56H279.054V65.52C279.054 67.2 279.427 68.3867 280.174 69.08C280.92 69.7467 281.947 70.08 283.254 70.08C284.507 70.08 285.467 69.8533 286.134 69.4C286.827 68.9467 287.24 68.2533 287.374 67.32H294.094C293.747 69.7733 292.64 71.6 290.774 72.8C288.934 73.9733 286.427 74.56 283.254 74.56C279.734 74.56 277.04 73.7467 275.174 72.12C273.334 70.4667 272.414 67.72 272.414 63.88ZM283.254 57.52C281.92 57.52 280.88 57.8133 280.134 58.4C279.414 58.96 279.054 59.8533 279.054 61.08H287.494C287.467 59.8267 287.094 58.92 286.374 58.36C285.654 57.8 284.614 57.52 283.254 57.52ZM296.667 67.52H303.547C303.6 68.5333 303.974 69.24 304.667 69.64C305.36 70.0133 306.307 70.2 307.507 70.2C308.76 70.2 309.694 70.04 310.307 69.72C310.92 69.4 311.227 68.9067 311.227 68.24C311.227 67.12 310.48 66.48 308.987 66.32C307.52 66.16 305.907 65.9733 304.147 65.76C302.387 65.5467 300.76 65.04 299.267 64.24C297.8 63.44 297.067 61.8533 297.067 59.48C297.067 57.24 297.947 55.6133 299.707 54.6C301.494 53.56 303.92 53.04 306.987 53.04C310.08 53.04 312.547 53.56 314.387 54.6C316.254 55.6133 317.24 57.3067 317.347 59.68H310.467C310.387 58.7733 310.04 58.1733 309.427 57.88C308.814 57.56 308 57.4 306.987 57.4C305.947 57.4 305.147 57.5467 304.587 57.84C304.027 58.1067 303.747 58.56 303.747 59.2C303.747 60.24 304.48 60.84 305.947 61C307.44 61.1333 309.054 61.32 310.787 61.56C312.547 61.7733 314.16 62.2933 315.627 63.12C317.12 63.92 317.867 65.52 317.867 67.92C317.867 70.24 316.96 71.9333 315.147 73C313.334 74.04 310.787 74.56 307.507 74.56C304.147 74.56 301.534 74.0133 299.667 72.92C297.8 71.8 296.8 70 296.667 67.52ZM328.9 63.92C328.9 60.0533 329.713 57.28 331.34 55.6C332.967 53.8933 335.22 53.04 338.1 53.04C339.62 53.04 340.953 53.28 342.1 53.76C343.247 54.2133 344.18 54.9333 344.9 55.92V44.8H351.66V74H345.1V71.4C344.38 72.4933 343.433 73.2933 342.26 73.8C341.087 74.3067 339.7 74.56 338.1 74.56C335.247 74.56 332.993 73.7333 331.34 72.08C329.713 70.4 328.9 67.68 328.9 63.92ZM344.9 65.72V61.92C344.9 60.4533 344.527 59.3867 343.78 58.72C343.033 58.0533 341.887 57.72 340.34 57.72C338.82 57.72 337.673 58.0533 336.9 58.72C336.153 59.3867 335.78 60.4667 335.78 61.96V65.72C335.78 67.2133 336.167 68.28 336.94 68.92C337.713 69.56 338.86 69.88 340.38 69.88C341.9 69.88 343.033 69.56 343.78 68.92C344.527 68.28 344.9 67.2133 344.9 65.72ZM355.343 63.88C355.343 60.0133 356.263 57.24 358.103 55.56C359.97 53.88 362.663 53.04 366.183 53.04C369.73 53.04 372.437 53.84 374.303 55.44C376.17 57.0133 377.103 59.6267 377.103 63.28V64.56H361.983V65.52C361.983 67.2 362.357 68.3867 363.103 69.08C363.85 69.7467 364.877 70.08 366.183 70.08C367.437 70.08 368.397 69.8533 369.063 69.4C369.757 68.9467 370.17 68.2533 370.303 67.32H377.023C376.677 69.7733 375.57 71.6 373.703 72.8C371.863 73.9733 369.357 74.56 366.183 74.56C362.663 74.56 359.97 73.7467 358.103 72.12C356.263 70.4667 355.343 67.72 355.343 63.88ZM366.183 57.52C364.85 57.52 363.81 57.8133 363.063 58.4C362.343 58.96 361.983 59.8533 361.983 61.08H370.423C370.397 59.8267 370.023 58.92 369.303 58.36C368.583 57.8 367.543 57.52 366.183 57.52ZM389.352 53.6H395.912V56.28C396.659 55.16 397.632 54.3467 398.832 53.84C400.059 53.3067 401.526 53.04 403.232 53.04C406.006 53.04 408.179 53.8933 409.752 55.6C411.326 57.28 412.112 60.04 412.112 63.88C412.112 67.6133 411.326 70.3333 409.752 72.04C408.206 73.72 406.032 74.56 403.232 74.56C401.606 74.56 400.192 74.32 398.992 73.84C397.792 73.36 396.819 72.6133 396.072 71.6V82H389.352V53.6ZM405.232 65.72V61.92C405.232 60.4267 404.846 59.36 404.072 58.72C403.326 58.0533 402.192 57.72 400.672 57.72C399.099 57.72 397.939 58.0533 397.192 58.72C396.446 59.36 396.072 60.4267 396.072 61.92V65.72C396.072 67.2133 396.446 68.28 397.192 68.92C397.966 69.56 399.112 69.88 400.632 69.88C402.152 69.88 403.299 69.56 404.072 68.92C404.846 68.28 405.232 67.2133 405.232 65.72ZM414.876 63.8C414.876 61.7467 415.116 60.0267 415.596 58.64C416.102 57.2533 416.822 56.1467 417.756 55.32C418.716 54.4933 419.916 53.9067 421.356 53.56C422.796 53.2133 424.449 53.04 426.316 53.04C428.209 53.04 429.876 53.2133 431.316 53.56C432.756 53.9067 433.956 54.4933 434.916 55.32C435.876 56.1467 436.596 57.2533 437.076 58.64C437.556 60.0267 437.796 61.7467 437.796 63.8C437.796 65.88 437.556 67.6133 437.076 69C436.596 70.3867 435.876 71.4933 434.916 72.32C433.956 73.1467 432.756 73.72 431.316 74.04C429.876 74.3867 428.209 74.56 426.316 74.56C424.449 74.56 422.796 74.3867 421.356 74.04C419.916 73.72 418.716 73.1467 417.756 72.32C416.822 71.4933 416.102 70.3867 415.596 69C415.116 67.6133 414.876 65.88 414.876 63.8ZM430.916 65.52V62.12C430.916 60.44 430.529 59.2933 429.756 58.68C428.982 58.04 427.836 57.72 426.316 57.72C424.822 57.72 423.689 58.04 422.916 58.68C422.142 59.2933 421.756 60.44 421.756 62.12V65.52C421.756 67.1733 422.142 68.32 422.916 68.96C423.689 69.5733 424.822 69.88 426.316 69.88C427.836 69.88 428.982 69.5733 429.756 68.96C430.529 68.32 430.916 67.1733 430.916 65.52ZM456.061 74V61.04C456.061 59.7867 455.741 58.9333 455.101 58.48C454.461 58.0267 453.514 57.8 452.261 57.8C451.061 57.8 450.087 58.04 449.341 58.52C448.594 59 448.221 59.84 448.221 61.04V74H441.501V53.6H448.061V56.68C448.647 55.4533 449.581 54.5467 450.861 53.96C452.141 53.3467 453.581 53.04 455.181 53.04C457.661 53.04 459.554 53.6667 460.861 54.92C462.167 56.1733 462.821 58.1467 462.821 60.84V74H456.061ZM468.201 66.88V58.84H465.681V53.6H468.201V47.52H474.961V53.6H480.281V58.84H474.961V66.04C474.961 67 475.161 67.7067 475.561 68.16C475.961 68.5867 476.681 68.8 477.721 68.8H480.281V74H475.241C472.628 74 470.801 73.44 469.761 72.32C468.721 71.1733 468.201 69.36 468.201 66.88ZM482.527 68.44C482.527 66.3333 483.234 64.7467 484.647 63.68C486.061 62.5867 488.301 61.9467 491.367 61.76L497.247 61.48V60.72C497.247 59.52 496.954 58.6933 496.367 58.24C495.781 57.76 494.901 57.52 493.727 57.52C492.634 57.52 491.821 57.7067 491.287 58.08C490.754 58.4267 490.407 58.9733 490.247 59.72H483.247C483.514 57.5333 484.501 55.88 486.207 54.76C487.941 53.6133 490.474 53.04 493.807 53.04C497.194 53.04 499.727 53.6667 501.407 54.92C503.114 56.1467 503.967 58.08 503.967 60.72V74H497.447V71.2C496.781 72.2667 495.821 73.0933 494.567 73.68C493.314 74.2667 491.714 74.56 489.767 74.56C487.394 74.56 485.594 74.0133 484.367 72.92C483.141 71.8 482.527 70.3067 482.527 68.44ZM489.407 68C489.407 68.72 489.647 69.2533 490.127 69.6C490.634 69.9467 491.381 70.12 492.367 70.12C493.861 70.12 495.047 69.7867 495.927 69.12C496.807 68.4267 497.247 67.4 497.247 66.04V65.16L492.527 65.4C491.434 65.48 490.634 65.68 490.127 66C489.647 66.32 489.407 66.8267 489.407 67.52V68ZM515.808 68.44C515.808 66.3333 516.515 64.7467 517.928 63.68C519.342 62.5867 521.582 61.9467 524.648 61.76L530.528 61.48V60.72C530.528 59.52 530.235 58.6933 529.648 58.24C529.062 57.76 528.182 57.52 527.008 57.52C525.915 57.52 525.102 57.7067 524.568 58.08C524.035 58.4267 523.688 58.9733 523.528 59.72H516.528C516.795 57.5333 517.782 55.88 519.488 54.76C521.222 53.6133 523.755 53.04 527.088 53.04C530.475 53.04 533.008 53.6667 534.688 54.92C536.395 56.1467 537.248 58.08 537.248 60.72V74H530.728V71.2C530.062 72.2667 529.102 73.0933 527.848 73.68C526.595 74.2667 524.995 74.56 523.048 74.56C520.675 74.56 518.875 74.0133 517.648 72.92C516.422 71.8 515.808 70.3067 515.808 68.44ZM522.688 68C522.688 68.72 522.928 69.2533 523.408 69.6C523.915 69.9467 524.662 70.12 525.648 70.12C527.142 70.12 528.328 69.7867 529.208 69.12C530.088 68.4267 530.528 67.4 530.528 66.04V65.16L525.808 65.4C524.715 65.48 523.915 65.68 523.408 66C522.928 66.32 522.688 66.8267 522.688 67.52V68ZM550.29 53.6H556.85V56.28C557.596 55.16 558.57 54.3467 559.77 53.84C560.996 53.3067 562.463 53.04 564.17 53.04C566.943 53.04 569.116 53.8933 570.69 55.6C572.263 57.28 573.05 60.04 573.05 63.88C573.05 67.6133 572.263 70.3333 570.69 72.04C569.143 73.72 566.97 74.56 564.17 74.56C562.543 74.56 561.13 74.32 559.93 73.84C558.73 73.36 557.756 72.6133 557.01 71.6V82H550.29V53.6ZM566.17 65.72V61.92C566.17 60.4267 565.783 59.36 565.01 58.72C564.263 58.0533 563.13 57.72 561.61 57.72C560.036 57.72 558.876 58.0533 558.13 58.72C557.383 59.36 557.01 60.4267 557.01 61.92V65.72C557.01 67.2133 557.383 68.28 558.13 68.92C558.903 69.56 560.05 69.88 561.57 69.88C563.09 69.88 564.236 69.56 565.01 68.92C565.783 68.28 566.17 67.2133 566.17 65.72ZM575.813 63.8C575.813 61.7467 576.053 60.0267 576.533 58.64C577.04 57.2533 577.76 56.1467 578.693 55.32C579.653 54.4933 580.853 53.9067 582.293 53.56C583.733 53.2133 585.386 53.04 587.253 53.04C589.146 53.04 590.813 53.2133 592.253 53.56C593.693 53.9067 594.893 54.4933 595.853 55.32C596.813 56.1467 597.533 57.2533 598.013 58.64C598.493 60.0267 598.733 61.7467 598.733 63.8C598.733 65.88 598.493 67.6133 598.013 69C597.533 70.3867 596.813 71.4933 595.853 72.32C594.893 73.1467 593.693 73.72 592.253 74.04C590.813 74.3867 589.146 74.56 587.253 74.56C585.386 74.56 583.733 74.3867 582.293 74.04C580.853 73.72 579.653 73.1467 578.693 72.32C577.76 71.4933 577.04 70.3867 576.533 69C576.053 67.6133 575.813 65.88 575.813 63.8ZM591.853 65.52V62.12C591.853 60.44 591.466 59.2933 590.693 58.68C589.92 58.04 588.773 57.72 587.253 57.72C585.76 57.72 584.626 58.04 583.853 58.68C583.08 59.2933 582.693 60.44 582.693 62.12V65.52C582.693 67.1733 583.08 68.32 583.853 68.96C584.626 69.5733 585.76 69.88 587.253 69.88C588.773 69.88 589.92 69.5733 590.693 68.96C591.466 68.32 591.853 67.1733 591.853 65.52ZM616.998 74V61.04C616.998 59.7867 616.678 58.9333 616.038 58.48C615.398 58.0267 614.451 57.8 613.198 57.8C611.998 57.8 611.025 58.04 610.278 58.52C609.531 59 609.158 59.84 609.158 61.04V74H602.438V53.6H608.998V56.68C609.585 55.4533 610.518 54.5467 611.798 53.96C613.078 53.3467 614.518 53.04 616.118 53.04C618.598 53.04 620.491 53.6667 621.798 54.92C623.105 56.1733 623.758 58.1467 623.758 60.84V74H616.998ZM629.138 66.88V58.84H626.618V53.6H629.138V47.52H635.898V53.6H641.218V58.84H635.898V66.04C635.898 67 636.098 67.7067 636.498 68.16C636.898 68.5867 637.618 68.8 638.658 68.8H641.218V74H636.178C633.565 74 631.738 73.44 630.698 72.32C629.658 71.1733 629.138 69.36 629.138 66.88ZM643.465 68.44C643.465 66.3333 644.171 64.7467 645.585 63.68C646.998 62.5867 649.238 61.9467 652.305 61.76L658.185 61.48V60.72C658.185 59.52 657.891 58.6933 657.305 58.24C656.718 57.76 655.838 57.52 654.665 57.52C653.571 57.52 652.758 57.7067 652.225 58.08C651.691 58.4267 651.345 58.9733 651.185 59.72H644.185C644.451 57.5333 645.438 55.88 647.145 54.76C648.878 53.6133 651.411 53.04 654.745 53.04C658.131 53.04 660.665 53.6667 662.345 54.92C664.051 56.1467 664.905 58.08 664.905 60.72V74H658.385V71.2C657.718 72.2667 656.758 73.0933 655.505 73.68C654.251 74.2667 652.651 74.56 650.705 74.56C648.331 74.56 646.531 74.0133 645.305 72.92C644.078 71.8 643.465 70.3067 643.465 68.44ZM650.345 68C650.345 68.72 650.585 69.2533 651.065 69.6C651.571 69.9467 652.318 70.12 653.305 70.12C654.798 70.12 655.985 69.7867 656.865 69.12C657.745 68.4267 658.185 67.4 658.185 66.04V65.16L653.465 65.4C652.371 65.48 651.571 65.68 651.065 66C650.585 66.32 650.345 66.8267 650.345 67.52V68Z" fill="#00666C"/>
</svg>
